<svg width="39" height="29" viewBox="0 0 39 29" fill="none" xmlns="http://www.w3.org/2000/svg">
<path d="M23.1612 3.85026C22.7637 3.41625 22.5473 2.84222 22.5576 2.24909C22.5679 1.65596 22.8041 1.09004 23.2163 0.670571C23.6286 0.2511 24.1848 0.0108218 24.7677 0.000356692C25.3506 -0.0101084 25.9148 0.210056 26.3413 0.614469L38.3419 12.825C38.7633 13.2543 39 13.8362 39 14.4429C39 15.0496 38.7633 15.6315 38.3419 16.0608L26.3413 28.2713C26.1353 28.4963 25.8869 28.6767 25.6109 28.8018C25.3349 28.9269 25.0369 28.9942 24.7348 28.9996C24.4327 29.0051 24.1326 28.9485 23.8524 28.8334C23.5722 28.7182 23.3177 28.5468 23.1041 28.3294C22.8904 28.112 22.7219 27.8531 22.6088 27.568C22.4956 27.2829 22.44 26.9775 22.4454 26.6701C22.4507 26.3627 22.5168 26.0596 22.6398 25.7787C22.7628 25.4979 22.9401 25.2451 23.1612 25.0355L31.3216 16.7324H2.25011C1.65335 16.7324 1.08102 16.4912 0.659043 16.0618C0.237065 15.6324 0 15.0501 0 14.4429C0 13.8357 0.237065 13.2533 0.659043 12.824C1.08102 12.3946 1.65335 12.1534 2.25011 12.1534H31.3216L23.1612 3.85026Z" fill="white"/>
</svg>
