<svg width="340" height="232" viewBox="0 0 340 232" fill="none" xmlns="http://www.w3.org/2000/svg">
<g clip-path="url(#clip0_50_64)">
<path d="M38.2299 187.489C36.2537 173.936 31.5401 160.886 29.6311 147.321C27.7221 133.755 29.0508 118.837 37.7506 108.24C43.4271 101.34 51.5844 97.035 59.5609 92.9989C66.6544 89.408 73.9581 85.8296 81.8463 84.8552C88.801 84.0153 95.8188 85.2122 102.774 86.0438C115.859 87.6062 129.184 87.812 142.173 85.586C159.13 82.6755 175.163 75.9514 191.735 71.3777C207.969 66.9006 224.04 64.62 242.192 73.0577C254.739 78.8956 263.998 91.0837 267 104.557C271.853 126.325 260.895 150.45 270.108 170.76C272.706 176.481 276.743 181.411 280.039 186.762C284.092 193.359 287.016 200.584 288.693 208.14C289.269 210.74 289.694 213.482 288.958 216.04C287.066 222.592 278.959 224.771 272.139 225.309C249.462 227.098 226.807 222.873 204.189 220.416C167.473 216.435 130.424 217.136 93.645 219.879C84.6411 220.551 75.6456 221.335 66.6586 222.231C59.4053 222.94 45.6346 227.27 38.7976 225.208C31.1743 222.903 36.178 217.909 37.7926 210.74C39.5292 203.15 39.3484 195.149 38.2299 187.489Z" fill="url(#paint0_linear_50_64)"/>
<path d="M161.46 57.6145C161.46 57.6145 157.983 71.7347 152.786 75.6742C147.42 79.7397 141.853 71.9279 141.853 71.9279L138.758 77.5222C138.758 77.5222 144.489 86.762 150.267 86.9762C156.044 87.1904 161.115 82.0245 161.115 82.0245L161.46 57.6145Z" fill="#FE9526"/>
<path d="M131.766 47.9169L132.552 47.5683L148.581 51.638L153.395 84.0614H152.794L131.766 47.9169Z" fill="#3D3D56"/>
<path opacity="0.05" d="M55.9448 222.869C55.9448 222.869 20.9819 225.208 15.9529 228.556C10.924 231.903 50.3062 232.638 113.147 230.752C175.988 228.866 224.372 230.752 258.633 234.205C292.894 237.657 339.365 236.989 340.008 228.535C340.652 220.08 255.177 219.979 255.177 219.979L55.9448 222.869Z" fill="#000005"/>
<path d="M273.304 155.569C273.304 155.569 272.13 165.322 264.587 166.279H231.462L226.748 112.117H261.648C264.465 112.117 270.238 115.149 271.39 119.442C271.545 120.236 271.648 121.04 271.697 121.848C272.454 130.177 273.304 155.569 273.304 155.569Z" fill="#9CFA0D"/>
<path d="M271.706 121.857H239.749L230.263 112.558L229.826 112.117H261.656C264.473 112.117 270.247 115.149 271.399 119.442C271.554 120.239 271.657 121.046 271.706 121.857Z" fill="url(#paint1_linear_50_64)"/>
<path d="M60.2211 117.157L57.1011 115.8C56.6951 115.624 56.3623 115.313 56.1588 114.92C55.9553 114.528 55.8935 114.077 55.9839 113.644C56.0742 113.211 56.3112 112.822 56.6548 112.543C56.9985 112.264 57.4278 112.112 57.8706 112.113H226.748C228.834 112.093 230.898 112.544 232.785 113.431C234.673 114.318 236.336 115.619 237.651 117.237C238.747 118.565 239.472 120.159 239.753 121.857C240.514 126.926 240.048 149.005 239.837 157.296C239.724 161.798 236.402 165.674 231.928 166.233L231.449 166.279H67.8822L60.2211 117.157Z" fill="#68ACFD"/>
<path d="M60.2211 117.157L57.1011 115.8C56.6951 115.624 56.3623 115.313 56.1588 114.92C55.9553 114.528 55.8935 114.077 55.9839 113.644C56.0742 113.211 56.3112 112.822 56.6548 112.543C56.9985 112.264 57.4278 112.112 57.8706 112.113H226.748C228.834 112.093 230.898 112.544 232.785 113.431C234.673 114.318 236.336 115.619 237.651 117.237C238.747 118.565 239.472 120.159 239.753 121.857C240.514 126.926 240.048 149.005 239.837 157.296C239.724 161.798 236.402 165.674 231.928 166.233L231.449 166.279H67.8822L60.2211 117.157Z" fill="#68ACFD"/>
<path d="M239.85 157.296C239.737 161.798 236.415 165.674 231.941 166.233L231.462 166.279H67.8948L60.2211 117.157L57.1011 115.8C56.6951 115.624 56.3623 115.313 56.1588 114.92C55.9553 114.528 55.8935 114.077 55.9839 113.644C56.0742 113.211 56.3112 112.822 56.6548 112.543C56.9985 112.264 57.4278 112.112 57.8706 112.113H226.748C228.834 112.093 230.898 112.544 232.785 113.431C234.673 114.318 236.336 115.619 237.651 117.237C238.747 118.565 239.472 120.159 239.753 121.857C240.527 126.926 240.06 149.005 239.85 157.296Z" fill="url(#paint2_linear_50_64)"/>
<path opacity="0.61" d="M51.7526 166.296H232.054C232.678 166.296 233.276 166.049 233.718 165.609C234.159 165.168 234.408 164.571 234.409 163.948C234.409 163.324 234.161 162.726 233.719 162.285C233.278 161.844 232.679 161.596 232.054 161.596H51.7526C51.1281 161.596 50.5292 161.844 50.0876 162.285C49.646 162.726 49.3979 163.324 49.3979 163.948C49.3991 164.571 49.6476 165.168 50.0891 165.609C50.5306 166.049 51.1289 166.296 51.7526 166.296Z" fill="url(#paint3_linear_50_64)"/>
<path d="M51.7526 166.296H232.054C232.678 166.296 233.276 166.049 233.718 165.609C234.159 165.168 234.408 164.571 234.409 163.948C234.409 163.639 234.348 163.333 234.23 163.048C234.112 162.763 233.938 162.504 233.719 162.285C233.501 162.067 233.241 161.893 232.955 161.775C232.67 161.657 232.364 161.596 232.054 161.596H51.7526C51.1281 161.596 50.5292 161.844 50.0876 162.285C49.646 162.726 49.3979 163.324 49.3979 163.948C49.3991 164.571 49.6476 165.168 50.0891 165.609C50.5306 166.049 51.1289 166.296 51.7526 166.296ZM269.052 181.726V211.105C269.053 213.003 268.679 214.883 267.952 216.637C267.225 218.391 266.16 219.984 264.816 221.327C263.473 222.669 261.877 223.734 260.122 224.461C258.366 225.187 256.484 225.561 254.584 225.561H64.3586C62.4574 225.564 60.5744 225.192 58.8174 224.466C57.0605 223.741 55.4642 222.676 54.12 221.333C52.7759 219.99 51.7103 218.395 50.9844 216.64C50.2585 214.885 49.8866 213.004 49.8899 211.105V181.726C49.8869 179.056 50.6296 176.438 52.0344 174.167C52.3412 173.663 52.6811 173.18 53.0519 172.722C54.4054 171.024 56.1251 169.653 58.0828 168.711C60.0405 167.77 62.1857 167.281 64.3586 167.283H254.584C256.484 167.283 258.367 167.657 260.123 168.384C261.879 169.111 263.474 170.176 264.818 171.519C266.161 172.862 267.227 174.456 267.953 176.21C268.68 177.965 269.054 179.845 269.052 181.743V181.726Z" fill="#9CFA0D"/>
<path opacity="0.61" d="M194.976 225.561H64.3586C61.5844 225.562 58.8685 224.766 56.5343 223.269C54.2002 221.771 52.3462 219.635 51.1934 217.115H186.668C186.668 217.115 188.619 224.255 194.976 225.561Z" fill="url(#paint4_linear_50_64)"/>
<path d="M194.977 167.266C188.972 168.257 187.294 174.15 187.294 174.15H52.0344L53.052 172.705C54.4055 171.007 56.1251 169.636 58.0828 168.695C60.0405 167.753 62.1858 167.265 64.3587 167.266H194.977Z" fill="url(#paint5_linear_50_64)"/>
<path opacity="0.61" d="M269.052 181.726V211.105C269.054 213.691 268.361 216.229 267.046 218.456C265.73 220.683 263.839 222.516 261.572 223.764H201.826C200.633 223.764 199.452 223.53 198.349 223.074C197.247 222.619 196.245 221.95 195.401 221.108C194.557 220.265 193.888 219.265 193.431 218.164C192.975 217.063 192.74 215.883 192.74 214.692V179.047C192.739 177.855 192.974 176.674 193.43 175.573C193.887 174.472 194.556 173.471 195.4 172.628C196.244 171.785 197.245 171.117 198.348 170.661C199.451 170.205 200.633 169.97 201.826 169.971H263.01C264.881 171.309 266.405 173.074 267.456 175.118C268.507 177.163 269.054 179.428 269.052 181.726Z" fill="url(#paint6_linear_50_64)"/>
<path d="M269.052 181.726V211.105C269.053 211.647 269.023 212.188 268.964 212.726C268.939 212.961 268.905 213.192 268.867 213.423C268.71 214.43 268.442 215.416 268.068 216.363C267.98 216.603 267.883 216.834 267.774 217.065C267.305 218.112 266.712 219.099 266.008 220.005C265.823 220.24 265.63 220.475 265.424 220.702C264.327 221.944 263.024 222.988 261.572 223.789H210.412C209.12 223.791 207.842 223.517 206.665 222.984C205.488 222.452 204.439 221.673 203.588 220.702C203.391 220.479 203.206 220.246 203.033 220.005C202.392 219.119 201.92 218.122 201.641 217.065C201.578 216.838 201.527 216.603 201.485 216.363C201.38 215.817 201.328 215.261 201.33 214.704V179.047C201.328 178.411 201.396 177.778 201.532 177.157C201.574 176.921 201.632 176.688 201.704 176.46C202.015 175.395 202.522 174.398 203.201 173.52C203.385 173.276 203.583 173.043 203.794 172.823C204.641 171.917 205.666 171.195 206.805 170.702C207.943 170.209 209.171 169.956 210.412 169.958H263.01C264.137 170.765 265.141 171.729 265.991 172.823C266.168 173.049 266.34 173.28 266.504 173.52C267.138 174.435 267.66 175.422 268.06 176.46C268.153 176.691 268.241 176.926 268.312 177.157C268.636 178.11 268.853 179.096 268.96 180.097C268.989 180.328 269.01 180.563 269.023 180.798C269.044 181.092 269.052 181.416 269.052 181.726Z" fill="url(#paint7_linear_50_64)"/>
<path d="M266.179 173.697H202.875C203.059 173.453 203.257 173.221 203.468 173H265.661C265.842 173.227 266.015 173.458 266.179 173.697ZM267.987 177.322H201.206C201.249 177.086 201.306 176.853 201.378 176.625H267.734C267.827 176.856 267.915 177.091 267.987 177.322ZM268.697 180.95H201V180.249H268.634C268.664 180.48 268.685 180.715 268.697 180.95ZM201.004 183.878H268.731V184.575H201.004V183.878ZM201.004 187.502H268.731V188.2H201.004V187.502ZM201.004 191.131H268.731V191.828H201.004V191.131ZM201.004 194.76H268.731V195.453H201.004V194.76ZM201.004 198.384H268.731V199.077H201.004V198.384ZM201.004 202.013H268.731V202.706H201.004V202.013ZM201.004 205.638H268.731V206.331H201.004V205.638ZM201.004 209.266H268.731V209.964H201.004V209.266ZM268.638 212.891C268.613 213.126 268.58 213.357 268.542 213.588H201.004V212.891H268.638ZM267.764 216.515C267.676 216.755 267.579 216.986 267.469 217.217H201.328C201.265 216.99 201.214 216.755 201.172 216.515H267.764ZM265.682 220.144C265.497 220.379 265.304 220.615 265.098 220.841H203.262C203.065 220.618 202.88 220.386 202.707 220.144H265.682Z" fill="#53D86A"/>
<path d="M185.12 160.492H228.22C226.392 161.404 224.376 161.876 222.333 161.869H62.0796C59.427 161.887 56.8335 161.086 54.6539 159.576C54.037 159.151 53.4637 158.665 52.9426 158.127C52.7744 157.955 52.6104 157.774 52.4548 157.594C51.8681 156.909 51.3682 156.154 50.9663 155.347C50.878 155.17 50.7939 154.99 50.7182 154.813C50.4056 154.094 50.1798 153.339 50.0455 152.566C50.016 152.39 49.9866 152.214 49.9656 152.029C49.9149 151.618 49.8896 151.204 49.8899 150.79V128.253C49.8899 128.009 49.8899 127.77 49.9151 127.535C49.9404 127.3 49.9446 127.178 49.9656 127.001C50.0591 126.234 50.2411 125.48 50.508 124.755C50.5753 124.574 50.6468 124.398 50.7224 124.217C51.0655 123.418 51.5062 122.665 52.0343 121.974C52.1731 121.794 52.3161 121.613 52.4548 121.437C52.7653 121.075 53.0981 120.732 53.4514 120.412C55.8215 118.292 58.8981 117.131 62.0796 117.157H222.333C224.851 117.154 227.316 117.884 229.426 119.257H185.12C184.446 119.256 183.774 119.337 183.119 119.5C181.775 119.821 180.541 120.493 179.545 121.449C179.366 121.617 179.199 121.797 179.044 121.987C178.482 122.645 178.054 123.407 177.783 124.23C177.724 124.406 177.675 124.585 177.636 124.767C177.522 125.242 177.466 125.728 177.468 126.216V153.545C177.469 153.968 177.513 154.39 177.598 154.805C177.632 154.985 177.677 155.163 177.733 155.338C177.973 156.156 178.37 156.919 178.902 157.585C179.047 157.772 179.203 157.95 179.368 158.119C180.09 158.865 180.959 159.455 181.921 159.849C182.933 160.276 184.021 160.495 185.12 160.492Z" fill="#98F70F"/>
<path d="M234.519 128.417V151.218C234.519 151.344 234.519 151.479 234.493 151.605C234.468 151.731 234.472 151.861 234.46 151.987C234.447 152.113 234.426 152.222 234.413 152.335C234.401 152.449 234.384 152.516 234.367 152.604C234.362 152.65 234.354 152.695 234.342 152.739C234.321 152.86 234.296 152.986 234.266 153.108C234.237 153.23 234.228 153.268 234.203 153.348C234.178 153.427 234.165 153.503 234.14 153.583C234.115 153.663 234.094 153.751 234.069 153.835L233.98 154.091C233.98 154.162 233.938 154.23 233.913 154.297C233.888 154.364 233.846 154.477 233.808 154.566L233.694 154.839C233.676 154.889 233.654 154.939 233.627 154.986C233.601 155.056 233.57 155.125 233.535 155.191C233.509 155.25 233.476 155.309 233.446 155.368C233.417 155.427 233.358 155.548 233.308 155.632C233.257 155.716 233.165 155.905 233.085 156.052L232.954 156.262C232.837 156.456 232.715 156.64 232.584 156.821C232.517 156.918 232.45 157.006 232.382 157.094C232.248 157.275 232.105 157.447 231.962 157.619C231.819 157.791 231.642 157.98 231.47 158.152C231.125 158.504 230.759 158.834 230.373 159.139C230.365 159.15 230.355 159.158 230.343 159.164C230.217 159.265 230.091 159.358 229.961 159.454L229.54 159.744L229.12 160.013C228.985 160.097 228.85 160.172 228.699 160.252L228.216 160.508H185.121C184.022 160.512 182.934 160.297 181.921 159.874C180.961 159.481 180.092 158.895 179.368 158.152C179.203 157.983 179.047 157.805 178.902 157.619C178.369 156.958 177.972 156.199 177.733 155.385C177.677 155.211 177.632 155.034 177.598 154.855C177.513 154.441 177.469 154.019 177.468 153.595V126.371C177.466 125.886 177.522 125.403 177.636 124.931C177.675 124.75 177.724 124.572 177.783 124.398C178.054 123.579 178.482 122.821 179.045 122.167C179.199 121.977 179.366 121.798 179.545 121.63C180.544 120.68 181.777 120.01 183.119 119.689C183.774 119.53 184.446 119.449 185.121 119.45H229.427C229.62 119.576 229.813 119.706 229.998 119.845L230.213 120.004C230.505 120.222 230.786 120.454 231.054 120.702L231.285 120.92L231.453 121.088L231.68 121.323L231.907 121.575L231.954 121.63L231.987 121.672C232.122 121.831 232.256 121.999 232.382 122.167C232.45 122.251 232.513 122.34 232.576 122.424C232.582 122.436 232.591 122.448 232.601 122.457C232.713 122.62 232.823 122.783 232.929 122.949L233.11 123.243C233.219 123.427 233.324 123.621 233.421 123.81C233.467 123.91 233.518 124.003 233.564 124.099C233.61 124.196 233.657 124.301 233.694 124.398C233.732 124.494 233.774 124.574 233.808 124.666C233.842 124.759 233.879 124.843 233.909 124.931C233.938 125.019 233.972 125.107 234.001 125.196C234.129 125.559 234.232 125.931 234.308 126.308C234.322 126.357 234.332 126.406 234.338 126.455C234.338 126.544 234.371 126.632 234.388 126.72C234.405 126.808 234.434 127.018 234.455 127.165C234.476 127.312 234.497 127.518 234.506 127.699V127.984C234.506 128.081 234.519 128.27 234.519 128.417Z" fill="url(#paint8_linear_50_64)"/>
<path d="M182.031 159.598C181.08 159.828 180.099 160.041 179.087 160.237H64.8303C61.4532 160.256 58.0821 159.95 54.764 159.321C54.1471 158.896 53.5738 158.41 53.0527 157.872C52.8845 157.7 52.7205 157.519 52.5649 157.339C51.9782 156.654 51.4783 155.899 51.0764 155.092C50.9881 154.915 50.904 154.735 50.8283 154.558C50.5157 153.838 50.2899 153.084 50.1556 152.311C50.1261 152.135 50.0967 151.958 50.0757 151.774C50.025 151.363 49.9997 150.949 50 150.535V127.998C50 127.754 50 127.515 50.0252 127.28C50.0505 127.045 50.0547 126.923 50.0757 126.746C50.1692 125.979 50.3512 125.225 50.6181 124.499C50.6854 124.319 50.7569 124.142 50.8326 123.962C51.1757 123.163 51.6163 122.41 52.1444 121.719C52.2832 121.538 52.4262 121.358 52.5649 121.181C52.8754 120.819 53.2082 120.477 53.5615 120.157C57.2637 119.358 61.0429 118.971 64.8303 119.002H182.287L183.229 119.245C181.885 119.566 180.651 120.238 179.655 121.194C179.476 121.362 179.309 121.541 179.155 121.732C178.592 122.39 178.164 123.152 177.893 123.974C177.834 124.151 177.785 124.33 177.746 124.512C177.632 124.987 177.576 125.473 177.578 125.961V153.29C177.58 153.713 177.623 154.135 177.708 154.55C177.742 154.73 177.787 154.908 177.843 155.083C178.083 155.901 178.48 156.664 179.012 157.33C179.157 157.517 179.313 157.695 179.478 157.864C180.2 158.612 181.069 159.202 182.031 159.598Z" fill="#9CFA0D"/>
<path d="M181.849 159.364C180.936 159.593 179.993 159.804 179.021 159.999H69.2483C66.0037 160.019 62.7649 159.714 59.5771 159.089C58.9843 158.666 58.4336 158.183 57.9329 157.648C57.7713 157.477 57.6137 157.297 57.4643 157.118C56.9006 156.437 56.4203 155.686 56.0342 154.884C55.9493 154.708 55.8686 154.529 55.7958 154.354C55.4955 153.638 55.2785 152.888 55.1495 152.119C55.1212 151.944 55.0929 151.769 55.0727 151.585C55.024 151.176 54.9997 150.765 55 150.353V127.946C55 127.704 55 127.466 55.0242 127.232C55.0485 126.998 55.0525 126.877 55.0727 126.702C55.1626 125.939 55.3375 125.189 55.5938 124.468C55.6585 124.288 55.7272 124.113 55.7999 123.933C56.1295 123.139 56.5529 122.39 57.0603 121.703C57.1936 121.524 57.3309 121.344 57.4643 121.169C57.7625 120.809 58.0823 120.469 58.4217 120.15C61.9786 119.356 65.6095 118.971 69.2483 119.002H182.095L183 119.244C181.709 119.562 180.524 120.231 179.566 121.181C179.395 121.348 179.234 121.527 179.085 121.716C178.545 122.371 178.133 123.128 177.874 123.946C177.817 124.121 177.769 124.299 177.732 124.48C177.623 124.952 177.569 125.436 177.571 125.921V153.092C177.572 153.513 177.614 153.933 177.696 154.345C177.728 154.525 177.772 154.702 177.825 154.875C178.056 155.688 178.437 156.447 178.948 157.11C179.088 157.295 179.237 157.472 179.397 157.64C180.09 158.384 180.925 158.971 181.849 159.364Z" fill="url(#paint9_linear_50_64)"/>
<path d="M231.461 162.163C231.123 162.554 230.757 162.919 230.364 163.255C230.754 162.916 231.12 162.551 231.461 162.163Z" fill="url(#paint10_linear_50_64)"/>
<path d="M232.563 122.734C232.5 122.638 232.437 122.541 232.37 122.449C232.244 122.264 232.109 122.079 231.975 121.903C232.185 122.172 232.382 122.449 232.563 122.734Z" fill="url(#paint11_linear_50_64)"/>
<path d="M233.896 125.502C233.93 125.599 233.959 125.695 233.989 125.792C233.934 125.595 233.867 125.401 233.795 125.208C233.833 125.305 233.867 125.401 233.896 125.502Z" fill="url(#paint12_linear_50_64)"/>
<path d="M234.518 128.417V151.47C234.518 151.689 234.497 151.794 234.476 151.957C234.401 152.649 234.251 153.33 234.031 153.99C233.98 154.154 233.925 154.314 233.862 154.469C232.802 157.104 230.798 159.251 228.241 160.492H177.884C173.999 160.492 170.79 157.871 170.315 154.477C170.286 154.317 170.269 154.154 170.265 153.99C170.249 153.851 170.242 153.71 170.244 153.57V126.371C170.244 122.545 173.667 119.45 177.897 119.45H229.426C232.513 121.449 234.518 124.717 234.518 128.417Z" fill="#9CFA0D"/>
<path d="M232.37 121.974H179.045C179.199 121.784 179.366 121.604 179.545 121.437H231.928C232.088 121.613 232.231 121.777 232.37 121.974ZM233.896 124.755H177.636C177.674 124.573 177.723 124.393 177.783 124.217H233.686C233.762 124.393 233.833 124.574 233.896 124.755ZM234.497 127.535H177.468V126.997H234.451C234.451 127.174 234.485 127.354 234.497 127.535ZM177.468 129.778H234.523V130.315H177.468V129.778ZM177.468 132.558H234.523V133.096H177.468V132.558ZM177.468 135.338H234.523V135.876H177.468V135.338ZM177.468 138.123H234.523V138.656H177.468V138.123ZM177.468 140.903H234.523V141.437H177.468V140.903ZM177.468 143.684H234.523V144.217H177.468V143.684ZM177.468 146.464H234.523V146.997H177.468V146.464ZM177.468 149.244H234.523V149.782H177.468V149.244ZM234.527 152.016C234.517 152.195 234.517 152.375 234.527 152.554H177.468V152.016H234.527ZM233.69 154.805C233.69 154.986 233.459 155.162 233.442 155.343H177.733C177.676 155.166 177.632 154.987 177.598 154.805H233.69Z" fill="#53D86A"/>
<path d="M181.092 121.974H52.0344C52.1732 121.794 52.3161 121.613 52.4549 121.437H180.066C180.42 121.613 180.76 121.777 181.092 121.974ZM179.932 124.755H50.5081C50.5753 124.574 50.6468 124.398 50.7225 124.217H179.423C179.602 124.387 179.772 124.566 179.932 124.755ZM181.361 127.535H49.9152C49.9152 127.354 49.9446 127.178 49.9656 127.001H181.235C181.288 127.177 181.33 127.355 181.361 127.535ZM49.8857 129.778H181.42V130.311H49.8857V129.778ZM49.8857 132.558H181.42V133.091H49.8857V132.558ZM49.8857 135.338H181.42V135.876H49.8857V135.338ZM49.8857 138.123H181.42V138.656H49.8857V138.123ZM49.8857 140.907H181.42V141.437H49.8857V140.907ZM49.8857 143.684H181.42V144.213H49.8857V143.684ZM49.8857 146.464H181.42V146.997H49.8857V146.464ZM49.8857 149.244H181.42V149.782H49.8857V149.244ZM181.244 152.016C181.188 152.199 181.122 152.378 181.046 152.554H50.0455C50.0161 152.377 49.9867 152.201 49.9656 152.016H181.244ZM179.44 154.809C179.252 154.997 179.054 155.175 178.847 155.343H50.9664C50.8781 155.166 50.794 154.986 50.7183 154.809H179.44Z" fill="#53D86A"/>
<path opacity="0.2" d="M186.008 112.117C184.111 114.393 181.66 116.682 180.689 117.19C175.163 120.097 168.764 122.344 165.522 127.657C161.418 134.377 164.071 143.167 162.187 150.819C161.843 152.214 161.309 153.637 160.228 154.599C159.147 155.561 157.411 155.889 156.263 155.019C155.254 154.259 155.001 152.881 154.812 151.634C153.155 139.859 153.093 127.915 154.627 116.124C148.32 118.938 144.052 124.876 140.684 130.882C137.316 136.888 134.49 143.327 129.798 148.371C128.465 149.799 126.712 151.197 124.777 150.92C122.452 147.98 123.672 143.684 124.992 140.164C127.637 133.096 130.29 126.01 133.696 119.269C134.797 117.085 136.021 114.893 137.871 113.289C138.378 112.851 138.924 112.462 139.503 112.125L186.008 112.117Z" fill="#3D3D56"/>
<path d="M231.953 157.59C231.811 157.779 231.651 157.925 231.491 158.123H52.9426C52.7744 157.951 52.6104 157.77 52.4548 157.59H231.953Z" fill="#53D86A"/>
<path d="M91.5721 225.561H69.9973C63.0804 223.822 59.7291 216.351 59.7291 216.351C59.7291 216.351 59.1026 179.811 59.7291 175.191C60.3556 170.571 70.834 167.254 70.834 167.254H91.5721C84.6552 168.245 79.6304 174.981 79.6304 174.981C79.6304 174.981 79.21 215.364 79.6304 218.081C80.0509 220.798 91.5721 225.561 91.5721 225.561Z" fill="url(#paint13_linear_50_64)"/>
<path d="M91.5722 225.561H84.6553C77.7468 223.822 74.3956 216.351 74.3956 216.351C74.3956 216.351 73.7648 179.811 74.3956 175.191C75.0263 170.571 85.4962 167.254 85.4962 167.254H91.5722C84.6553 168.245 79.6305 174.981 79.6305 174.981C79.6305 174.981 79.21 215.364 79.6305 218.081C80.051 220.798 91.5722 225.561 91.5722 225.561Z" fill="url(#paint14_linear_50_64)"/>
<path d="M121.62 138.513L119.61 141.999L124.277 144.028L126.207 140.71L121.62 138.513Z" fill="url(#paint15_linear_50_64)"/>
<path d="M153 147.875L152.781 151.76L157.869 151.466L158.083 147.875H153Z" fill="url(#paint16_linear_50_64)"/>
<path d="M120.526 141.227C120.423 141.015 120.281 140.826 120.106 140.668C119.899 140.531 119.663 140.445 119.416 140.416L111.339 138.795C111.047 138.723 110.748 138.691 110.447 138.698C109.674 138.749 109.039 139.316 108.53 139.899C108.238 140.175 108.051 140.543 108 140.941C108.03 141.191 108.111 141.431 108.238 141.648C108.366 141.865 108.537 142.053 108.74 142.201C109.308 142.727 109.904 143.22 110.527 143.679C111.724 144.518 112.97 145.285 114.257 145.977C115.123 146.464 115.989 146.951 116.877 147.396C118.336 148.127 119.849 148.74 121.371 149.337C121.422 149.368 121.477 149.389 121.536 149.399C121.594 149.408 121.654 149.406 121.711 149.392C121.769 149.379 121.823 149.354 121.871 149.319C121.919 149.284 121.959 149.24 121.99 149.19C123.091 148.043 123.959 146.694 124.546 145.217C124.693 144.851 124.967 144.049 124.546 143.747C124.399 143.642 123.983 143.658 123.798 143.616C123.522 143.55 123.252 143.461 122.99 143.352C121.965 142.92 121.103 142.177 120.526 141.227ZM153.299 149.996C153.103 149.866 152.885 149.773 152.655 149.723C152.408 149.709 152.16 149.752 151.932 149.849L144.136 152.508C143.848 152.591 143.573 152.713 143.316 152.869C142.673 153.289 142.408 154.129 142.261 154.872C142.149 155.256 142.174 155.668 142.332 156.036C142.482 156.235 142.671 156.401 142.889 156.523C143.106 156.645 143.346 156.721 143.594 156.745C144.348 156.915 145.112 157.042 145.881 157.123C147.337 157.249 148.798 157.287 150.258 157.237C151.255 157.237 152.247 157.212 153.24 157.149C154.871 157.048 156.49 156.817 158.1 156.569C158.217 156.574 158.331 156.532 158.418 156.454C158.504 156.375 158.556 156.266 158.563 156.149C158.936 154.604 159.009 153.001 158.777 151.428C158.719 151.038 158.538 150.214 158.029 150.168C157.848 150.147 157.499 150.374 157.318 150.429C157.044 150.513 156.762 150.572 156.477 150.605C155.38 150.743 154.267 150.53 153.299 149.996ZM184.86 97.6062C184.86 97.6062 183.539 109.95 172.149 112.125C164.437 113.6 155.006 113.075 149.724 112.583C148.476 112.468 147.219 112.7 146.094 113.254C144.969 113.807 144.019 114.661 143.35 115.72L126.951 141.81L122.2 139.517H122.162L120.48 138.711L134.137 106.884C134.939 104.907 136.171 103.132 137.743 101.688C139.315 100.244 141.189 99.1672 143.228 98.5344L158.916 93.6835L162.583 92.5495C162.583 92.5495 177.266 91.0711 184.86 97.6062Z" fill="#3D3D56"/>
<path opacity="0.24" d="M158.929 93.6667L159.959 95.8464C159.959 95.8464 141.878 101.138 139.658 103.713C136.694 107.157 122.204 139.517 122.204 139.517H122.166L120.484 138.711L134.142 106.884C134.944 104.907 136.175 103.132 137.747 101.688C139.319 100.244 141.193 99.1672 143.232 98.5344L158.929 93.6667Z" fill="#FE9526"/>
<path d="M165.35 95.4642C165.35 95.4642 150.826 109.597 150.355 117.157C149.884 124.717 151.915 148.421 151.915 148.421H158.962C158.962 148.421 158.613 119.643 161.485 119.442C164.357 119.24 177.375 110.882 179.465 108.484C181.555 106.086 184.889 97.5978 184.889 97.5978L165.35 95.4642Z" fill="#3D3D56"/>
<path d="M184.86 97.6062C184.86 97.6062 173.217 103.541 161.128 96.5982C160.073 95.9935 159.06 95.3186 158.096 94.5781C158.096 94.5781 163.192 85.4852 159.135 72.2765C157.398 66.6276 157.36 55.8422 165.959 54.305H166.001C174.554 52.7888 174.07 54.8972 174.07 54.8972L177.939 58.6519C185.377 64.6956 186.193 73.9228 184.86 97.6062Z" fill="#FE9526"/>
<path opacity="0.24" d="M166.001 54.2966C165.643 55.0736 165.088 55.7438 164.391 56.2412C164.391 56.2412 159.278 58.5049 160.3 65.9934C161.321 73.4819 163.192 87.8834 163.192 87.8834L161.128 96.5982C160.073 95.9935 159.06 95.3185 158.096 94.5781C158.096 94.5781 163.192 85.4852 159.135 72.2765C157.398 66.6276 157.36 55.8422 165.959 54.305L166.001 54.2966Z" fill="#53D86A"/>
<path d="M173.692 53.8178C173.227 54.3718 172.655 54.8259 172.01 55.1528C171.365 55.4796 170.66 55.6724 169.938 55.7195C169.216 55.7666 168.492 55.6671 167.809 55.4268C167.127 55.1866 166.501 54.8107 165.968 54.3218C165.968 54.3218 159.66 60.6217 166.035 61.3819C169.399 61.8019 173.541 57.7363 174.739 55.439L173.692 53.8178Z" fill="#3D3D56"/>
<path d="M175.584 47.9169C175.559 48.0009 174.373 51.6255 173.482 54.2168C172.82 56.2367 171.417 57.9311 169.554 58.9585C168.461 59.6172 167.245 60.046 165.98 60.2185C165.678 60.2461 165.374 60.1897 165.102 60.0556C164.829 59.9216 164.599 59.715 164.437 59.4587C164.275 59.2024 164.187 58.9064 164.182 58.6032C164.178 58.3 164.257 58.0015 164.412 57.7405C164.706 57.2239 165.026 56.6276 165.32 55.9934C165.934 54.6746 166.447 53.2088 166.363 52.0496V51.9236C166.287 51.3189 166.682 50.7855 167.347 50.3193C168.284 49.6683 169.76 49.1559 171.203 48.7695C172.646 48.4041 174.109 48.1194 175.584 47.9169Z" fill="url(#paint17_linear_50_64)"/>
<path d="M166.237 55.943C165.948 56.0012 165.652 56.0223 165.358 56.006C165.972 54.6872 166.485 53.2214 166.401 52.0622L167.376 50.3319L168.104 49.0467L171.232 48.7821L174.394 48.5175C172.308 53.444 168.806 55.4852 166.237 55.943Z" fill="url(#paint18_linear_50_64)"/>
<path d="M172.111 31.344C170.967 31.1045 169.785 31.1039 168.641 31.3423C167.497 31.5807 166.414 32.053 165.461 32.7295C164.508 33.4059 163.706 34.2719 163.104 35.2731C162.502 36.2742 162.114 37.3888 161.965 38.5469C161.318 41.9412 161.291 45.4244 161.885 48.8283C163.327 54.0992 171.076 52.1882 172.649 50.5881C174.222 48.9879 180.541 41.6128 179.507 38.7443C178.847 36.7955 176.534 32.3436 172.111 31.344Z" fill="url(#paint19_linear_50_64)"/>
<path d="M165.867 26.2033L167.061 27.2785C166.24 27.0369 165.374 26.9935 164.533 27.1519C163.692 27.3104 162.901 27.6661 162.225 28.1899C160.613 29.112 159.428 30.6314 158.929 32.4192L161.582 31.9446C161.582 31.9446 160.615 34.7964 165.013 36.2201C169.411 37.6439 174.079 39.1013 174.079 39.1013L173.137 36.5813C173.137 36.5813 175.605 38.4377 175.811 39.5969C175.803 41.3549 175.663 43.1099 175.39 44.8468C175.39 44.8468 177.274 42.2848 177.56 43.0324C177.846 43.78 176.206 46.1194 175.458 46.5352C174.709 46.9509 174.356 48.6771 174.264 48.8031C174.171 48.9291 177.627 47.3583 177.968 46.5855C178.309 45.8128 183.317 38.4587 181.95 36.2579L183.081 36.4721C182.543 35.854 181.873 35.3633 181.122 35.0358C181.122 35.0358 176.425 23.4986 165.867 26.2033Z" fill="#3D3D56"/>
<path d="M164.202 88.2194C163.567 87.5852 162.94 86.8292 162.053 86.678C161.742 87.4172 162.377 88.1774 162.646 88.9292C162.686 89.013 162.707 89.1049 162.707 89.198C162.707 89.2911 162.686 89.383 162.646 89.4668C162.52 89.6684 162.225 89.681 161.994 89.6642C160.872 89.5838 159.771 89.3199 158.735 88.883C157.777 88.463 156.856 87.9212 155.817 87.8162C155.706 87.794 155.591 87.8087 155.489 87.8582C155.237 88.0178 155.384 88.4042 155.565 88.6394C155.951 89.1473 156.389 89.6132 156.873 90.0296C156.14 89.7063 155.358 89.5062 154.56 89.4374C154.337 89.4374 154.034 89.4836 154.039 89.7062C154.053 89.7977 154.097 89.8818 154.165 89.9456C154.756 90.6214 155.469 91.18 156.267 91.5919C155.687 91.4696 155.094 91.4202 154.501 91.4449C154.245 91.4449 153.904 91.5793 153.942 91.8313C153.961 91.9134 154.001 91.9889 154.06 92.0497C154.77 92.9083 155.732 93.5236 156.81 93.8095L155.128 93.8473C155.022 93.8422 154.916 93.8638 154.821 93.9103C154.518 94.1035 154.783 94.5781 155.077 94.7839C156.372 95.6868 158.021 95.8464 159.606 95.9598C162.637 96.1782 165.829 96.2958 168.562 94.9603C168.76 94.8595 168.982 94.7251 169.02 94.5067C169.029 94.3923 169.011 94.2775 168.97 94.1707C168.638 93.0661 168.469 91.0627 167.464 90.3907C166.977 90.0674 166.375 89.8826 165.875 89.5508C165.375 89.219 164.773 88.505 164.202 88.2194Z" fill="url(#paint20_linear_50_64)"/>
<path d="M187.328 85.8758C186.378 95.2039 169.432 96.3462 169.432 96.3462L167.687 90.3529L167.38 89.2988C167.38 89.2988 176.446 88.1564 178.178 85.3214C179.911 82.4865 172.779 72.9821 177.089 67.6818C181.399 62.3815 182.379 64.011 182.379 64.011C182.379 64.011 188.27 76.5478 187.328 85.8758Z" fill="#FE9526"/>
<path d="M141.866 71.9321C141.866 71.9321 141.866 72.2807 141.794 72.8057C141.651 74.1118 141.243 76.5016 140.159 77.371C138.632 78.5932 138.422 76.8124 138.456 76.111C138.489 75.7259 138.552 75.344 138.645 74.9686C138.998 73.4483 140.869 72.4067 141.588 72.0623L141.866 71.9321Z" fill="url(#paint21_linear_50_64)"/>
<path d="M141.794 72.8057C141.651 74.1118 141.243 76.5016 140.159 77.371C139.688 77.0308 139.082 76.5772 138.456 76.111C137.615 75.481 136.719 74.8174 136.084 74.3554C135.519 73.9769 135.005 73.5281 134.554 73.0199C134.16 72.5024 133.832 71.9381 133.578 71.3399L132.275 68.5091C131.854 67.581 131.434 66.3546 132.182 65.6364C132.371 65.4516 134.095 65.1156 134.209 64.872C134.524 64.1748 132.527 62.7006 132.653 61.9321C132.716 61.7227 132.849 61.5418 133.031 61.4206C133.213 61.2995 133.432 61.2456 133.65 61.2685C134.07 61.2895 135.264 62.3857 135.638 62.6083C136.379 63.0282 135.756 63.6246 136.479 64.0614C137.418 64.5428 138.27 65.1757 139.002 65.9346C139.818 66.888 140.23 68.1101 140.621 69.2945C140.907 70.1639 141.29 71.1047 141.584 72.0413C141.664 72.3101 141.735 72.5579 141.794 72.8057Z" fill="url(#paint22_linear_50_64)"/>
<path d="M135.609 66.111L132.804 52.8266L131.766 47.9169L148.064 52.2806L152.794 84.0615L137.648 79.4499L135.609 66.111Z" fill="#FE9526"/>
<path d="M139.002 65.9514L132.552 51.6381L137.648 79.4499L152.794 84.0615L151.171 73.1627L139.002 65.9514Z" fill="url(#paint23_linear_50_64)"/>
<path d="M136.538 71.8397C137.051 71.5835 138.102 71.1173 138.367 70.6091C138.43 70.4873 138.523 70.3277 138.443 70.2185C138.077 69.7145 136.572 70.3571 136.143 70.2185C136.437 69.7355 139.061 68.2697 137.825 67.938C137.56 67.8666 135.916 68.6981 135.651 68.6225C135.857 68.4545 137.547 67.2534 137.838 66.9426C137.921 66.85 137.971 66.7317 137.979 66.6072C137.986 66.4826 137.951 66.3592 137.879 66.2571C137.808 66.1551 137.703 66.0804 137.583 66.0455C137.463 66.0105 137.335 66.0173 137.219 66.0648C136.324 66.4755 135.406 66.8344 134.47 67.14C134.65 66.8418 137.093 65.46 137.19 65.1072C137.24 64.9801 137.249 64.8406 137.215 64.7082C137.181 64.6339 137.131 64.5675 137.07 64.5133C137.008 64.459 136.936 64.4182 136.858 64.3932C136.177 64.1286 135.411 64.3932 134.73 64.6662L133.116 65.3046C132.598 65.5062 132.027 65.7666 131.854 66.2874C131.778 66.5509 131.766 66.8285 131.816 67.098C132.017 68.791 132.624 70.4105 133.587 71.8187C134.066 72.5159 135.58 74.2 136.45 74.3638C137.224 74.5108 135.819 72.2177 136.538 71.8397Z" fill="url(#paint24_linear_50_64)"/>
<path opacity="0.24" d="M153.399 114.893C153.399 114.893 158.958 102.172 165.383 98.5512L163.192 97.665C163.192 97.665 151.911 109.647 150.578 115.813C149.245 121.978 151.919 148.434 151.919 148.434H153.769C153.769 148.434 150.712 117.489 153.399 114.893ZM178.67 87.3374C175.092 88.8074 168.999 90.0883 167.687 90.3571L167.435 90.4075L167.38 89.303C167.38 89.303 176.446 88.1606 178.178 85.3256C179.911 82.4907 172.779 72.9863 177.089 67.686C177.089 67.686 176.543 72.3731 177.96 75.838C179.377 79.3029 182.69 85.6826 178.67 87.3374Z" fill="#FE9526"/>
</g>
<defs>
<linearGradient id="paint0_linear_50_64" x1="176.719" y1="297.775" x2="108.763" y2="-79.2549" gradientUnits="userSpaceOnUse">
<stop offset="0.02" stop-color="#86E91C"/>
<stop offset="1" stop-color="white" stop-opacity="0"/>
</linearGradient>
<linearGradient id="paint1_linear_50_64" x1="247.33" y1="110.475" x2="273.404" y2="150.255" gradientUnits="userSpaceOnUse">
<stop stop-color="white" stop-opacity="0"/>
<stop offset="0.99" stop-color="white"/>
</linearGradient>
<linearGradient id="paint2_linear_50_64" x1="147.874" y1="143.238" x2="148.617" y2="75.9388" gradientUnits="userSpaceOnUse">
<stop stop-color="#99F80F"/>
<stop offset="0.99" stop-color="white"/>
</linearGradient>
<linearGradient id="paint3_linear_50_64" x1="173.343" y1="88.3874" x2="138.411" y2="172.511" gradientUnits="userSpaceOnUse">
<stop offset="0.17" stop-color="#00012E"/>
<stop offset="1" stop-color="#595BD4" stop-opacity="0"/>
</linearGradient>
<linearGradient id="paint4_linear_50_64" x1="121.99" y1="189.837" x2="123.76" y2="240.857" gradientUnits="userSpaceOnUse">
<stop offset="0.17" stop-color="#00012E"/>
<stop offset="1" stop-color="#595BD4" stop-opacity="0"/>
</linearGradient>
<linearGradient id="paint5_linear_50_64" x1="124.218" y1="161.789" x2="121.991" y2="189.677" gradientUnits="userSpaceOnUse">
<stop stop-color="white" stop-opacity="0"/>
<stop offset="0.99" stop-color="white"/>
</linearGradient>
<linearGradient id="paint6_linear_50_64" x1="156.868" y1="196.036" x2="227.837" y2="196.819" gradientUnits="userSpaceOnUse">
<stop offset="0.18" stop-color="#00012E"/>
<stop offset="1" stop-color="#595BD4" stop-opacity="0"/>
</linearGradient>
<linearGradient id="paint7_linear_50_64" x1="278.665" y1="200.341" x2="173.365" y2="191.648" gradientUnits="userSpaceOnUse">
<stop stop-color="#9CFA0D"/>
<stop offset="1" stop-color="white"/>
</linearGradient>
<linearGradient id="paint8_linear_50_64" x1="235.259" y1="142.289" x2="176.531" y2="137.444" gradientUnits="userSpaceOnUse">
<stop stop-color="#68ACFD"/>
<stop offset="1" stop-color="white"/>
</linearGradient>
<linearGradient id="paint9_linear_50_64" x1="179.51" y1="139.492" x2="29.5293" y2="139.492" gradientUnits="userSpaceOnUse">
<stop stop-color="white" stop-opacity="0"/>
<stop offset="0.99" stop-color="white"/>
</linearGradient>
<linearGradient id="paint10_linear_50_64" x1="230.364" y1="162.709" x2="231.461" y2="162.709" gradientUnits="userSpaceOnUse">
<stop stop-color="#68ACFD"/>
<stop offset="1" stop-color="#595BD4"/>
</linearGradient>
<linearGradient id="paint11_linear_50_64" x1="231.975" y1="122.319" x2="232.563" y2="122.319" gradientUnits="userSpaceOnUse">
<stop stop-color="#68ACFD"/>
<stop offset="1" stop-color="#595BD4"/>
</linearGradient>
<linearGradient id="paint12_linear_50_64" x1="233.795" y1="125.502" x2="233.989" y2="125.502" gradientUnits="userSpaceOnUse">
<stop stop-color="#68ACFD"/>
<stop offset="1" stop-color="#595BD4"/>
</linearGradient>
<linearGradient id="paint13_linear_50_64" x1="69.5179" y1="237.762" x2="83.9372" y2="149.676" gradientUnits="userSpaceOnUse">
<stop stop-color="white" stop-opacity="0"/>
<stop offset="0.99" stop-color="white"/>
</linearGradient>
<linearGradient id="paint14_linear_50_64" x1="85.5172" y1="168.946" x2="79.04" y2="249.288" gradientUnits="userSpaceOnUse">
<stop offset="0.02" stop-color="#9CFA0D"/>
<stop offset="1" stop-color="white"/>
</linearGradient>
<linearGradient id="paint15_linear_50_64" x1="126.934" y1="141.6" x2="117.23" y2="140.796" gradientUnits="userSpaceOnUse">
<stop stop-color="#C4C5EC"/>
<stop offset="0.42" stop-color="#FE9526"/>
<stop offset="1" stop-color="#F2DEC9"/>
</linearGradient>
<linearGradient id="paint16_linear_50_64" x1="159.043" y1="148.172" x2="150.16" y2="151.793" gradientUnits="userSpaceOnUse">
<stop stop-color="#C4C5EC"/>
<stop offset="0.42" stop-color="#FE9526"/>
<stop offset="1" stop-color="#F2DEC9"/>
</linearGradient>
<linearGradient id="paint17_linear_50_64" x1="165.778" y1="54.0346" x2="173.753" y2="56.1741" gradientUnits="userSpaceOnUse">
<stop stop-color="#C4C5EC"/>
<stop offset="0.42" stop-color="#FE9526"/>
<stop offset="1" stop-color="#F2DEC9"/>
</linearGradient>
<linearGradient id="paint18_linear_50_64" x1="172.567" y1="49.6599" x2="152.26" y2="69.2875" gradientUnits="userSpaceOnUse">
<stop stop-color="#C4C5EC"/>
<stop offset="0.42" stop-color="#FE9526"/>
<stop offset="1" stop-color="#F2DEC9"/>
</linearGradient>
<linearGradient id="paint19_linear_50_64" x1="161.567" y1="41.059" x2="178.456" y2="45.5897" gradientUnits="userSpaceOnUse">
<stop stop-color="#C4C5EC"/>
<stop offset="0.42" stop-color="#FE9526"/>
<stop offset="1" stop-color="#F2DEC9"/>
</linearGradient>
<linearGradient id="paint20_linear_50_64" x1="153.921" y1="91.3945" x2="168.995" y2="91.3945" gradientUnits="userSpaceOnUse">
<stop stop-color="#C4C5EC"/>
<stop offset="0.42" stop-color="#FE9526"/>
<stop offset="1" stop-color="#F2DEC9"/>
</linearGradient>
<linearGradient id="paint21_linear_50_64" x1="138.456" y1="74.8594" x2="141.866" y2="74.8594" gradientUnits="userSpaceOnUse">
<stop stop-color="#181966"/>
<stop offset="1" stop-color="#167FFC"/>
</linearGradient>
<linearGradient id="paint22_linear_50_64" x1="131.766" y1="69.3281" x2="141.794" y2="69.3281" gradientUnits="userSpaceOnUse">
<stop stop-color="#C4C5EC"/>
<stop offset="0.42" stop-color="#FE9526"/>
<stop offset="1" stop-color="#F2DEC9"/>
</linearGradient>
<linearGradient id="paint23_linear_50_64" x1="137.535" y1="59.6977" x2="157.778" y2="108.706" gradientUnits="userSpaceOnUse">
<stop stop-color="white" stop-opacity="0"/>
<stop offset="0.99" stop-color="white"/>
</linearGradient>
<linearGradient id="paint24_linear_50_64" x1="131.766" y1="69.3239" x2="138.477" y2="69.3239" gradientUnits="userSpaceOnUse">
<stop stop-color="#C4C5EC"/>
<stop offset="0.42" stop-color="#FE9526"/>
<stop offset="1" stop-color="#F2DEC9"/>
</linearGradient>
<clipPath id="clip0_50_64">
<rect width="340" height="232" fill="white"/>
</clipPath>
</defs>
</svg>
