<svg width="336" height="359" viewBox="0 0 336 359" fill="none" xmlns="http://www.w3.org/2000/svg">
<g filter="url(#filter0_d_51_416)">
<path d="M-47.3169 359.79C-22.4546 247.217 101.5 120.668 187.72 136.874C200.462 209.99 99.5873 365.771 12.4504 375.058C-74.688 384.346 -47.3169 359.79 -47.3169 359.79Z" fill="#90E20C"/>
<path d="M2.54226 343.366C5.81649 335.353 10.431 327.291 15.3194 319.474C20.243 311.638 25.5562 303.957 31.0417 296.388C42.0253 281.246 53.7389 266.543 65.8571 252.179C77.9902 237.823 90.5517 223.803 103.651 210.297C110.218 203.561 116.921 196.954 123.89 190.635C127.401 187.509 130.933 184.396 134.646 181.512C138.344 178.619 142.14 175.788 146.398 173.742C142.02 175.535 138.033 178.157 134.152 180.84C130.25 183.519 126.522 186.433 122.81 189.366C115.441 195.297 108.323 201.531 101.334 207.904C87.3883 220.685 73.9481 234.014 60.8971 247.731C47.8571 261.462 35.1896 275.568 23.1296 290.286C17.1026 297.649 11.2218 305.159 5.6377 312.982C0.0776409 320.843 -5.26609 328.885 -9.69507 338.102L2.54226 343.366Z" fill="#CCE9FF"/>
<path d="M-108.349 323.608C-95.7805 230.976 -4.06861 120.428 66.6896 127.762C81.8718 185.997 10.7642 318.624 -59.031 331.952C-128.827 345.281 -108.349 323.608 -108.349 323.608Z" fill="#90E20C"/>
<path d="M-69.1556 307.004C-67.0451 300.31 -63.8548 293.487 -60.4268 286.843C-56.9717 280.181 -53.1913 273.62 -49.2642 267.136C-41.4002 254.166 -32.9168 241.502 -24.0839 229.084C-15.2384 216.673 -6.02415 204.504 3.65927 192.714C8.51536 186.832 13.4912 181.044 18.7005 175.472C21.3286 172.712 23.9749 169.96 26.7828 167.381C29.5778 164.797 32.4559 162.255 35.7603 160.317C32.3424 162.059 29.2956 164.444 26.3388 166.872C23.3643 169.297 20.5467 171.901 17.7429 174.519C12.1837 179.804 6.84848 185.318 1.62636 190.935C-8.78885 202.195 -18.7593 213.865 -28.3892 225.822C-38.0095 237.789 -47.3035 250.035 -56.0658 262.734C-60.4442 269.087 -64.6947 275.549 -68.6845 282.244C-72.6523 288.968 -76.4332 295.824 -79.3964 303.568L-69.1556 307.004Z" fill="#CCE9FF"/>
<path d="M-7.49394 438.357C24.6453 345.956 143.515 252.501 216.28 275.547C220.303 338.697 118.543 459.35 42.5623 457.741C-33.4199 456.131 -7.49394 438.357 -7.49394 438.357Z" fill="#4ABA47"/>
<path d="M37.039 429.892C40.6232 423.479 45.3673 417.169 50.3242 411.096C55.3131 405.01 60.623 399.099 66.071 393.299C76.9778 381.699 88.472 370.55 100.283 359.73C112.105 348.92 124.265 338.439 136.84 328.451C143.14 323.473 149.546 318.619 156.154 314.037C159.477 311.777 162.817 309.531 166.292 307.497C169.754 305.455 173.294 303.475 177.159 302.209C173.215 303.249 169.53 305.031 165.93 306.876C162.312 308.716 158.822 310.773 155.344 312.848C148.428 317.058 141.7 321.553 135.07 326.178C121.836 335.462 108.984 345.264 96.4312 355.435C83.8864 365.619 71.6268 376.162 59.8327 387.286C53.9378 392.852 48.1549 398.558 42.5979 404.561C37.0581 410.599 31.6875 416.812 26.9934 424.118L37.039 429.892Z" fill="#CCE9FF"/>
</g>
<defs>
<filter id="filter0_d_51_416" x="-132.15" y="106.416" width="377.546" height="380.341" filterUnits="userSpaceOnUse" color-interpolation-filters="sRGB">
<feFlood flood-opacity="0" result="BackgroundImageFix"/>
<feColorMatrix in="SourceAlpha" type="matrix" values="0 0 0 0 0 0 0 0 0 0 0 0 0 0 0 0 0 0 127 0" result="hardAlpha"/>
<feOffset dx="4" dy="4"/>
<feGaussianBlur stdDeviation="12.5"/>
<feComposite in2="hardAlpha" operator="out"/>
<feColorMatrix type="matrix" values="0 0 0 0 0 0 0 0 0 0 0 0 0 0 0 0 0 0 0.25 0"/>
<feBlend mode="normal" in2="BackgroundImageFix" result="effect1_dropShadow_51_416"/>
<feBlend mode="normal" in="SourceGraphic" in2="effect1_dropShadow_51_416" result="shape"/>
</filter>
</defs>
</svg>
