<svg width="136" height="159" viewBox="0 0 136 159" fill="none" xmlns="http://www.w3.org/2000/svg">
<g filter="url(#filter0_d_39_149)">
<path d="M94.4444 159.5C81.9444 94.5 71.7877 35.6082 -0.555603 31C-1.55553 150 -0.555603 31 -0.555588 159.5C94.4444 159.5 94.4444 159.5 94.4444 159.5Z" fill="#0E538C"/>
<path d="M96.9518 158.347C100.594 92.7842 52.0296 4.34559 2.24995 0C-15.9617 38.1487 15.4566 139.078 61.8258 157.547C108.196 176.017 96.9518 158.347 96.9518 158.347Z" fill="#2A94F4"/>
<path d="M72.125 141.685C71.5589 136.788 70.2653 131.657 68.784 126.619C67.2862 121.565 65.5508 116.537 63.7039 111.543C60.0036 101.552 55.8353 91.6894 51.3934 81.9503C46.9419 72.2139 42.2039 62.5958 37.0918 53.1767C34.5241 48.4745 31.8613 43.8213 29.0088 39.2855C27.563 37.0321 26.1035 34.7825 24.5095 32.6306C22.9252 30.4766 21.2779 28.3407 19.2563 26.565C21.3822 28.2207 23.1668 30.2705 24.8835 32.3381C26.6128 34.4063 28.2101 36.5769 29.796 38.7553C32.9279 43.1397 35.8751 47.6517 38.7304 52.2201C44.4176 61.3711 49.7436 70.7452 54.7966 80.2723C59.8416 89.8049 64.6244 99.4869 68.9803 109.411C71.1559 114.374 73.2287 119.396 75.0908 124.544C76.9339 129.71 78.6306 134.941 79.6451 140.676L72.125 141.685Z" fill="#CCE9FF"/>
<path d="M107.929 169.303C107.929 169.303 106.374 171.584 102.24 171.364C101.404 171.322 100.463 171.176 99.4096 170.882C95.0743 169.703 88.8093 166.118 80.0234 157.384C58.553 136.02 73.5828 75.3003 92.84 58.3587C119.582 72.6512 125.591 133.585 107.929 169.303Z" fill="#0E538C"/>
<path d="M102.24 171.364C101.404 171.323 100.463 171.176 99.4095 170.883C99.438 170.709 99.4577 170.543 99.4862 170.37C100.727 161.663 101.499 152.862 101.953 144.048C102.416 135.229 102.548 126.389 102.27 117.561C102.123 113.145 101.868 108.724 101.393 104.334C101.257 103.242 101.147 102.14 100.981 101.048L100.743 99.405L100.454 97.78C100.028 95.619 99.5671 93.4411 98.7211 91.3911C99.6372 93.4116 100.181 95.5712 100.686 97.7294L101.038 99.3546L101.333 100.989C101.539 102.083 101.689 103.179 101.863 104.273C102.494 108.665 102.913 113.088 103.216 117.504C103.809 126.359 103.997 135.234 103.856 144.112C103.714 152.989 103.245 161.862 102.309 170.724L102.24 171.364Z" fill="white"/>
</g>
<defs>
<filter id="filter0_d_39_149" x="-7" y="0" width="128.971" height="179.379" filterUnits="userSpaceOnUse" color-interpolation-filters="sRGB">
<feFlood flood-opacity="0" result="BackgroundImageFix"/>
<feColorMatrix in="SourceAlpha" type="matrix" values="0 0 0 0 0 0 0 0 0 0 0 0 0 0 0 0 0 0 127 0" result="hardAlpha"/>
<feOffset dy="4"/>
<feGaussianBlur stdDeviation="2"/>
<feComposite in2="hardAlpha" operator="out"/>
<feColorMatrix type="matrix" values="0 0 0 0 0 0 0 0 0 0 0 0 0 0 0 0 0 0 0.25 0"/>
<feBlend mode="normal" in2="BackgroundImageFix" result="effect1_dropShadow_39_149"/>
<feBlend mode="normal" in="SourceGraphic" in2="effect1_dropShadow_39_149" result="shape"/>
</filter>
</defs>
</svg>
