<svg width="377" height="359" viewBox="0 0 377 359" fill="none" xmlns="http://www.w3.org/2000/svg">
<g filter="url(#filter0_d_51_415)">
<path d="M457.301 359.951C461.772 266.577 391.673 141.205 320.76 135.561C295.25 190.067 341.075 333.408 407.287 359.195C473.5 384.984 457.301 359.951 457.301 359.951Z" fill="#4ABA47"/>
<path d="M421.776 336.502C420.917 329.536 419.02 322.247 416.856 315.09C414.669 307.912 412.144 300.773 409.46 293.684C404.084 279.5 398.042 265.506 391.613 251.69C385.17 237.878 378.32 224.237 370.94 210.884C367.233 204.218 363.392 197.622 359.282 191.196C357.199 188.004 355.097 184.818 352.804 181.771C350.525 178.722 348.157 175.7 345.26 173.194C348.304 175.528 350.867 178.426 353.333 181.351C355.818 184.276 358.115 187.349 360.397 190.433C364.903 196.64 369.148 203.032 373.262 209.504C381.458 222.469 389.142 235.756 396.439 249.264C403.725 262.779 410.639 276.511 416.948 290.59C420.099 297.633 423.105 304.76 425.812 312.068C428.492 319.402 430.964 326.83 432.471 334.984L421.776 336.502Z" fill="#CCE9FF"/>
<path d="M390.71 384.441C386.716 269.225 287.819 122.26 200.089 122.53C174.274 192.114 245.164 363.63 329.163 388.596C413.164 413.562 390.71 384.441 390.71 384.441Z" fill="#90E20C"/>
<path d="M344.665 359.231C342.901 350.757 339.828 341.991 336.442 333.415C333.024 324.815 329.195 316.297 325.176 307.857C317.127 290.971 308.279 274.385 298.973 258.058C289.65 241.736 279.845 225.668 269.418 210.005C264.185 202.189 258.793 194.474 253.088 186.993C250.204 183.282 247.296 179.579 244.169 176.068C241.058 172.552 237.84 169.078 234.025 166.292C238.004 168.851 241.448 172.153 244.777 175.498C248.127 178.841 251.263 182.384 254.381 185.942C260.55 193.113 266.417 200.537 272.132 208.074C283.522 223.176 294.317 238.726 304.658 254.586C314.987 270.457 324.88 286.63 334.065 303.294C338.654 311.629 343.072 320.083 347.142 328.791C351.181 337.531 354.975 346.41 357.655 356.278L344.665 359.231Z" fill="#CCE9FF"/>
<path d="M339.736 482.31C333.166 384.7 243.228 263.148 166.959 266.14C146.386 325.98 212.633 469.241 286.337 487.773C360.042 506.306 339.736 482.31 339.736 482.31Z" fill="#90E20C"/>
<path d="M299.025 462.375C297.264 455.243 294.356 447.903 291.181 440.735C287.978 433.548 284.42 426.443 280.699 419.409C273.246 405.339 265.108 391.548 256.578 377.991C248.033 364.44 239.076 351.118 229.589 338.16C224.829 331.695 219.934 325.32 214.773 319.154C212.165 316.096 209.537 313.047 206.724 310.167C203.925 307.283 201.033 304.437 197.641 302.194C201.169 304.24 204.253 306.932 207.237 309.664C210.24 312.395 213.062 315.301 215.868 318.221C221.425 324.111 226.725 330.223 231.896 336.436C242.206 348.889 252.01 361.739 261.427 374.867C270.834 388.005 279.871 401.413 288.305 415.259C292.519 422.185 296.587 429.218 300.36 436.476C304.107 443.763 307.644 451.175 310.24 459.462L299.025 462.375Z" fill="#CCE9FF"/>
</g>
<defs>
<filter id="filter0_d_51_415" x="134.159" y="101.529" width="345.891" height="422.269" filterUnits="userSpaceOnUse" color-interpolation-filters="sRGB">
<feFlood flood-opacity="0" result="BackgroundImageFix"/>
<feColorMatrix in="SourceAlpha" type="matrix" values="0 0 0 0 0 0 0 0 0 0 0 0 0 0 0 0 0 0 127 0" result="hardAlpha"/>
<feOffset dx="-4" dy="4"/>
<feGaussianBlur stdDeviation="12.5"/>
<feComposite in2="hardAlpha" operator="out"/>
<feColorMatrix type="matrix" values="0 0 0 0 0 0 0 0 0 0 0 0 0 0 0 0 0 0 0.25 0"/>
<feBlend mode="normal" in2="BackgroundImageFix" result="effect1_dropShadow_51_415"/>
<feBlend mode="normal" in="SourceGraphic" in2="effect1_dropShadow_51_415" result="shape"/>
</filter>
</defs>
</svg>
