<svg width="136" height="156" viewBox="0 0 136 156" fill="none" xmlns="http://www.w3.org/2000/svg">
<g filter="url(#filter0_d_40_150)">
<path d="M40.9619 159.5C53.4619 94.5 63.6186 35.6082 135.962 31C136.962 150 135.962 31 135.962 159.5C40.9619 159.5 40.9619 159.5 40.9619 159.5Z" fill="#4ABA47"/>
<path d="M38.4546 158.347C34.8122 92.7842 83.3768 4.34559 133.156 0C151.368 38.1487 119.95 139.078 73.5806 157.547C27.2108 176.017 38.4546 158.347 38.4546 158.347Z" fill="#90E20C"/>
<path d="M63.2814 141.685C63.8475 136.788 65.1411 131.657 66.6225 126.619C68.1203 121.565 69.8557 116.537 71.7026 111.543C75.4028 101.552 79.5711 91.6894 84.013 81.9503C88.4645 72.2139 93.2026 62.5958 98.3146 53.1767C100.882 48.4745 103.545 43.8213 106.398 39.2855C107.843 37.0321 109.303 34.7825 110.897 32.6306C112.481 30.4766 114.129 28.3407 116.15 26.565C114.024 28.2207 112.24 30.2705 110.523 32.3381C108.794 34.4063 107.196 36.5769 105.61 38.7553C102.479 43.1397 99.5314 47.6517 96.676 52.2201C90.9888 61.3711 85.6628 70.7452 80.6098 80.2723C75.5649 89.8049 70.782 99.4869 66.4261 109.411C64.2505 114.374 62.1777 119.396 60.3156 124.544C58.4726 129.71 56.7758 134.941 55.7613 140.676L63.2814 141.685Z" fill="#CCE9FF"/>
<path d="M27.4773 169.303C27.4773 169.303 29.032 171.584 33.1667 171.364C34.0021 171.322 34.9434 171.176 35.9968 170.882C40.3321 169.703 46.597 166.118 55.383 157.384C76.8534 136.02 61.8236 75.3003 42.5664 58.3587C15.8244 72.6512 9.81488 133.585 27.4773 169.303Z" fill="#4ABA47"/>
<path d="M33.1668 171.364C34.0022 171.323 34.9435 171.176 35.9969 170.883C35.9684 170.709 35.9487 170.543 35.9202 170.37C34.6791 161.663 33.9073 152.862 33.453 144.048C32.9901 135.229 32.8581 126.389 33.1367 117.561C33.2831 113.145 33.5384 108.724 34.0132 104.334C34.1492 103.242 34.2591 102.14 34.4258 101.048L34.6631 99.405L34.9523 97.78C35.3782 95.619 35.8393 93.4411 36.6853 91.3911C35.7692 93.4116 35.2251 95.5712 34.7201 97.7294L34.3684 99.3546L34.0737 100.989C33.8678 102.083 33.7179 103.179 33.5436 104.273C32.9129 108.665 32.4938 113.088 32.1908 117.504C31.5976 126.359 31.4094 135.234 31.5509 144.112C31.6924 152.989 32.161 161.862 33.0972 170.724L33.1668 171.364Z" fill="white"/>
</g>
<defs>
<filter id="filter0_d_40_150" x="13.4352" y="0" width="128.971" height="179.379" filterUnits="userSpaceOnUse" color-interpolation-filters="sRGB">
<feFlood flood-opacity="0" result="BackgroundImageFix"/>
<feColorMatrix in="SourceAlpha" type="matrix" values="0 0 0 0 0 0 0 0 0 0 0 0 0 0 0 0 0 0 127 0" result="hardAlpha"/>
<feOffset dy="4"/>
<feGaussianBlur stdDeviation="2"/>
<feComposite in2="hardAlpha" operator="out"/>
<feColorMatrix type="matrix" values="0 0 0 0 0 0 0 0 0 0 0 0 0 0 0 0 0 0 0.25 0"/>
<feBlend mode="normal" in2="BackgroundImageFix" result="effect1_dropShadow_40_150"/>
<feBlend mode="normal" in="SourceGraphic" in2="effect1_dropShadow_40_150" result="shape"/>
</filter>
</defs>
</svg>
