<svg width="97" height="100" viewBox="0 0 97 100" fill="none" xmlns="http://www.w3.org/2000/svg">
<path d="M90.6906 35.3503C94.1995 34.087 96.0594 30.1897 94.3352 26.8829C89.8917 18.3607 83.0597 11.2538 74.6107 6.47627C64.1917 0.584826 52.005 -1.37357 40.2648 0.956903C28.5246 3.28738 18.0099 9.75208 10.6311 19.1764C3.25241 28.6008 -0.50072 40.3594 0.0536601 52.3158C0.60804 64.2723 5.43314 75.6332 13.6523 84.3343C21.8714 93.0354 32.9392 98.4994 44.8447 99.7335C56.7502 100.968 68.7034 97.8899 78.5325 91.0597C86.5032 85.5208 92.6482 77.8122 96.2841 68.9154C97.6949 65.4632 95.4823 61.7547 91.8716 60.8216V60.8216C88.2609 59.8884 84.6323 62.0994 83.0507 65.4768C80.3404 71.2646 76.1388 76.2773 70.8258 79.9693C63.6516 84.9547 54.927 87.2011 46.2372 86.3004C37.5474 85.3996 29.469 81.4114 23.4699 75.0605C17.4708 68.7096 13.9489 60.4173 13.5443 51.6903C13.1397 42.9634 15.8791 34.3808 21.2648 27.502C26.6505 20.6231 34.3251 15.9046 42.8943 14.2036C51.4634 12.5026 60.3585 13.932 67.9633 18.2321C73.5951 21.4167 78.2425 26.0191 81.4768 31.5313C83.3641 34.7478 87.1818 36.6136 90.6906 35.3503V35.3503Z" fill="url(#paint0_angular_83_3)"/>
<defs>
<radialGradient id="paint0_angular_83_3" cx="0" cy="0" r="1" gradientUnits="userSpaceOnUse" gradientTransform="translate(59.5 55) rotate(-68.1986) scale(5.38516)">
<stop offset="0.114002" stop-color="#67E77E" stop-opacity="0"/>
<stop offset="0.314229" stop-color="#4ABA47"/>
<stop offset="0.649478" stop-color="#4ABA47"/>
</radialGradient>
</defs>
</svg>
