<svg width="412" height="292" viewBox="0 0 412 292" fill="none" xmlns="http://www.w3.org/2000/svg">
<g clip-path="url(#clip0_50_161)">
<path fill-rule="evenodd" clip-rule="evenodd" d="M326.821 39.4019L335.295 52.0548L338.553 4.08262L297.745 33.5541L309.79 33.5762L291.377 62.165L174.406 29.6445C173.294 29.336 172.131 29.2514 170.986 29.3956C169.84 29.5397 168.735 29.9098 167.733 30.4844C166.731 31.059 165.852 31.8268 165.148 32.7435C164.444 33.6601 163.928 34.7074 163.629 35.8251L149.163 90.2529L125.27 93.8882C123.658 94.1342 122.147 94.8268 120.907 95.8878C119.667 96.9488 118.747 98.336 118.252 99.8929L100.588 155.609C99.1305 160.211 101.673 165.136 106.267 166.597C110.862 168.059 115.781 165.507 117.239 160.905L133.258 110.374L157.429 106.699C159.111 106.442 160.681 105.7 161.948 104.563C163.215 103.426 164.124 101.943 164.564 100.297L178.239 48.8708L292.897 80.7491C294.692 81.2477 296.598 81.1588 298.339 80.4952C300.079 79.8316 301.563 78.6281 302.573 77.0602L326.821 39.4019Z" fill="#92F313"/>
<path fill-rule="evenodd" clip-rule="evenodd" d="M70.1329 269.484C67.6613 250.579 53.9281 247.222 41.2328 240.65C29.8803 234.763 18.0218 226.434 9.24473 215.84C-1.49146 202.888 -6.42164 184.117 2.55005 167.998C5.91038 161.958 10.3541 156.709 15.2973 152.591C19.2414 149.307 23.6202 146.949 28.2326 145.435C65.7606 133.093 74.3949 198.171 109.88 192.934C131.579 189.731 145.637 165.737 158.085 146.575C169.976 128.268 184.086 111.597 202.185 102.792C223.041 92.6492 242.489 107.74 262.055 115.65C273.498 120.276 285.421 122.427 297.481 121.591C326.238 119.601 325.979 72.6493 352.31 57.149C406.095 25.4848 433.944 99.0116 389.877 151.979C377.246 167.162 359.556 178.565 349.897 197.198C338.252 219.673 341.035 242.912 343.325 267.947L70.1329 269.484Z" fill="#98F70F"/>
<path fill-rule="evenodd" clip-rule="evenodd" d="M75.574 267.902C75.2106 263.189 73.6404 258.496 72.1525 254.043C68.1825 242.19 62.464 231.547 52.3299 223.903C47.4068 220.192 40.7284 216.716 34.3449 217.592C31.3211 218.007 27.9476 219.756 28.0984 223.258C28.359 229.52 35.8533 234.412 40.4336 237.456C51.6237 244.898 72.3993 252.957 75.574 267.902Z" fill="#53D86A"/>
<mask id="mask0_50_161" style="mask-type:luminance" maskUnits="userSpaceOnUse" x="28" y="217" width="48" height="51">
<path d="M75.574 267.902C75.2106 263.189 73.6404 258.496 72.1525 254.043C68.1825 242.19 62.464 231.547 52.3299 223.903C47.4068 220.192 40.7284 216.716 34.3449 217.592C31.3211 218.007 27.9476 219.756 28.0984 223.258C28.359 229.52 35.8533 234.412 40.4336 237.456C51.6237 244.898 72.3993 252.957 75.574 267.902Z" fill="white"/>
</mask>
<g mask="url(#mask0_50_161)">
<path fill-rule="evenodd" clip-rule="evenodd" d="M30.8453 214.371C29.9886 216.511 30.351 219.045 30.7958 221.233C31.1913 223.206 31.7432 225.212 32.7565 226.962C36.4306 233.286 44.1579 235.944 50.9954 236.985C54.0847 237.455 59.0358 237.769 61.4578 235.226C63.1218 233.476 61.9191 231.792 61.8202 229.827C61.7955 229.307 62.2074 229.183 62.644 229.315C65.0083 230.009 67.0348 233.385 68.3035 235.259C72.1095 240.914 74.5397 247.758 75.5447 254.486C75.899 256.855 76.4262 260.166 74.9022 262.263C72.9909 264.896 68.6412 262.882 66.4252 261.842C65.7826 261.536 65.1401 261.214 64.5058 260.884C63.7726 260.504 63.0394 260.108 62.3227 259.712C61.1941 259.092 60.0902 258.432 58.9945 257.772C52.297 253.759 20.2924 237.092 16.0745 229.208C11.6754 220.977 23.2416 217.163 30.8453 214.371Z" fill="#4ABA47"/>
</g>
<path fill-rule="evenodd" clip-rule="evenodd" d="M79.0151 267.902C79.3785 263.189 80.9487 258.496 82.4366 254.043C86.4066 242.19 92.1251 231.547 102.259 223.903C107.182 220.192 113.861 216.716 120.244 217.592C123.268 218.007 126.642 219.756 126.491 223.258C126.23 229.52 118.736 234.412 114.156 237.456C102.965 244.898 82.1898 252.957 79.0151 267.902Z" fill="#53D86A"/>
<mask id="mask1_50_161" style="mask-type:luminance" maskUnits="userSpaceOnUse" x="79" y="217" width="48" height="51">
<path d="M79.0151 267.902C79.3785 263.189 80.9487 258.496 82.4366 254.043C86.4066 242.19 92.1251 231.547 102.259 223.903C107.182 220.192 113.861 216.716 120.244 217.592C123.268 218.007 126.642 219.756 126.491 223.258C126.23 229.52 118.736 234.412 114.156 237.456C102.965 244.898 82.1898 252.957 79.0151 267.902Z" fill="white"/>
</mask>
<g mask="url(#mask1_50_161)">
<path fill-rule="evenodd" clip-rule="evenodd" d="M123.744 214.371C124.601 216.511 124.238 219.045 123.794 221.233C123.398 223.206 122.846 225.212 121.833 226.962C118.159 233.286 110.431 235.944 103.594 236.985C100.505 237.455 95.5536 237.769 93.1316 235.226C91.4675 233.476 92.6703 231.792 92.7692 229.827C92.7939 229.307 92.382 229.183 91.9454 229.315C89.5811 230.009 87.5545 233.385 86.2859 235.259C82.4799 240.914 80.0497 247.758 79.0446 254.486C78.6904 256.855 78.1632 260.166 79.6872 262.263C81.5984 264.896 85.9481 262.882 88.1641 261.842C88.8067 261.536 89.4492 261.214 90.0836 260.884C90.8167 260.504 91.5499 260.108 92.2667 259.712C93.3953 259.092 94.4992 258.432 95.5948 257.772C102.292 253.759 134.297 237.092 138.515 229.208C142.914 220.977 131.348 217.163 123.744 214.371Z" fill="#4ABA47"/>
</g>
<path fill-rule="evenodd" clip-rule="evenodd" d="M74.0772 265.571C74.3137 256.694 74.8685 247.143 73.8498 237.982C72.8765 229.308 70.4935 220.981 64.7904 214.064C58.6143 206.562 49.8095 201.857 41.9234 196.385C33.1459 190.29 25.4598 183.313 22.5037 171.81C21.6032 168.343 21.2667 164.738 21.6123 161.172C21.9852 157.372 23.2405 153.706 24.9232 150.28C25.7327 148.628 27.7338 147.95 29.3802 148.764C31.0265 149.578 31.7088 151.58 30.8901 153.23C29.5621 155.938 28.5343 158.824 28.2341 161.829C27.9612 164.616 28.2432 167.433 28.9436 170.144C31.4722 179.943 38.2304 185.71 45.7163 190.903C54.0936 196.718 63.3622 201.845 69.9294 209.816C82.6909 225.318 81.2356 246.93 80.7353 265.748C80.6807 267.593 79.1526 269.047 77.3152 268.994C75.4779 268.95 74.0317 267.415 74.0772 265.571Z" fill="#4ABA47"/>
<mask id="mask2_50_161" style="mask-type:luminance" maskUnits="userSpaceOnUse" x="21" y="148" width="61" height="121">
<path d="M74.0772 265.571C74.3137 256.694 74.8685 247.143 73.8498 237.982C72.8765 229.308 70.4935 220.981 64.7904 214.064C58.6143 206.562 49.8095 201.857 41.9234 196.385C33.1459 190.29 25.4598 183.313 22.5037 171.81C21.6032 168.343 21.2667 164.738 21.6123 161.172C21.9852 157.372 23.2405 153.706 24.9232 150.28C25.7327 148.628 27.7338 147.95 29.3802 148.764C31.0265 149.578 31.7088 151.58 30.8901 153.23C29.5621 155.938 28.5343 158.824 28.2341 161.829C27.9612 164.616 28.2432 167.433 28.9436 170.144C31.4722 179.943 38.2304 185.71 45.7163 190.903C54.0936 196.718 63.3622 201.845 69.9294 209.816C82.6909 225.318 81.2356 246.93 80.7353 265.748C80.6807 267.593 79.1526 269.047 77.3152 268.994C75.4779 268.95 74.0317 267.415 74.0772 265.571Z" fill="white"/>
</mask>
<g mask="url(#mask2_50_161)">
<path fill-rule="evenodd" clip-rule="evenodd" d="M39.6017 144.046C34.5511 148.19 32.6133 173.675 28.9654 179.003C28.1001 180.279 26.7684 185.27 25.0281 185.555C23.6827 185.774 22.5303 183.815 21.9595 182.905C19.9253 179.688 18.8035 175.783 17.8308 172.143C15.2996 162.755 13.9048 151.446 16.751 141.987C17.2261 140.389 17.87 138.779 18.7655 137.368C22.6969 131.214 29.866 134.311 34.1754 138.166C36.1653 139.952 37.9275 141.958 39.6017 144.046Z" fill="#4ABA47"/>
</g>
<path d="M34.3258 169.585C17.0742 169.585 3.08892 155.57 3.08892 138.282C3.08892 120.994 17.0742 106.98 34.3258 106.98C51.5774 106.98 65.5625 120.994 65.5625 138.282C65.5625 155.57 51.5774 169.585 34.3258 169.585Z" fill="#FE9526"/>
<mask id="mask3_50_161" style="mask-type:luminance" maskUnits="userSpaceOnUse" x="3" y="106" width="63" height="64">
<path d="M34.3258 169.585C17.0742 169.585 3.08892 155.57 3.08892 138.282C3.08892 120.994 17.0742 106.98 34.3258 106.98C51.5774 106.98 65.5625 120.994 65.5625 138.282C65.5625 155.57 51.5774 169.585 34.3258 169.585Z" fill="white"/>
</mask>
<g mask="url(#mask3_50_161)">
<path fill-rule="evenodd" clip-rule="evenodd" d="M8.86103 113.756C5.74705 129.161 6.74393 147.777 20.7816 157.593C23.464 159.456 26.3918 160.937 29.4809 161.993C37.2412 164.651 46.5502 164.61 53.9974 160.994C56.1887 159.937 58.273 158.591 60.0441 156.916C61.1563 155.867 62.2602 154.117 63.6442 153.432C65.0199 152.747 65.3988 154.497 65.3165 155.487C65.0199 159.219 62.4991 162.917 60.2336 165.724C51.5177 176.531 37.1258 179.701 24.1262 175.49C1.71042 168.234 -10.0206 134.263 8.86103 113.756Z" fill="#D96F00"/>
</g>
<path fill-rule="evenodd" clip-rule="evenodd" d="M326.3 142.784C296.128 127.238 232.778 144.753 232.778 144.753L180.5 80.9613C180.5 80.9613 183.137 66.0273 181.487 64.7849C176.071 60.706 172.057 71.8923 172.057 71.8923C172.057 71.8923 150.163 59.3291 143.953 59.6633C131.671 60.3268 154.848 79.9253 154.848 79.9253C154.848 79.9253 175.771 158.908 198.827 178.718C221.882 198.529 274.435 197.705 293.162 198.793C327.601 200.795 343.831 151.816 326.3 142.784Z" fill="#FADBBA"/>
<mask id="mask4_50_161" style="mask-type:luminance" maskUnits="userSpaceOnUse" x="140" y="59" width="194" height="140">
<path d="M326.3 142.787C296.127 127.24 232.778 144.753 232.778 144.753L180.498 80.961C180.498 80.961 183.135 66.0274 181.485 64.7849C176.069 60.706 172.055 71.8919 172.055 71.8919C172.055 71.8919 150.161 59.3283 143.951 59.6623C131.669 60.3255 154.847 79.9243 154.847 79.9243C154.847 79.9243 175.772 158.906 198.828 178.717C221.884 198.528 274.436 197.705 293.164 198.794C327.603 200.797 343.831 151.819 326.3 142.787Z" fill="white"/>
</mask>
<g mask="url(#mask4_50_161)">
<path fill-rule="evenodd" clip-rule="evenodd" d="M155.488 81.6349C160.736 86.8337 176.464 161.249 225.021 181.728C235.754 186.254 255.309 178.885 266.939 178.862C272.593 178.85 279.151 176.959 284.7 178.01C289.209 178.863 291.879 183.239 292.569 187.502C296.019 208.81 269.055 215.616 253.267 215.887C249.573 215.95 245.879 215.864 242.199 215.515C238.182 215.133 234.158 214.588 230.196 213.804C189.257 205.698 165.674 121.924 155.488 81.6349Z" fill="#D7B999"/>
<path fill-rule="evenodd" clip-rule="evenodd" d="M267.273 131.719C261.212 141.062 260.731 153.59 260.531 164.374C260.38 172.299 260.41 180.023 263.083 187.556C265.426 194.151 269.056 201.579 274.318 206.375C285.131 216.217 301.374 210.506 312.173 203.773C331.62 191.651 348.603 163.337 331.825 142.293C329.224 139.031 326.008 136.172 322.489 133.934C315.907 129.748 274.887 132.852 267.273 131.719Z" fill="#F27F05"/>
</g>
<path fill-rule="evenodd" clip-rule="evenodd" d="M368.095 158.13C352.442 142.44 285.796 113.671 280.133 157.248C272.728 214.219 245.096 269.342 245.096 269.342L365.629 268.511C365.629 268.511 383.742 173.82 368.095 158.13Z" fill="#F27F05"/>
<mask id="mask5_50_161" style="mask-type:luminance" maskUnits="userSpaceOnUse" x="245" y="134" width="130" height="136">
<path d="M368.095 158.13C352.442 142.44 285.796 113.671 280.133 157.248C272.728 214.219 245.096 269.342 245.096 269.342L365.629 268.511C365.629 268.511 383.742 173.82 368.095 158.13Z" fill="white"/>
</mask>
<g mask="url(#mask5_50_161)">
<path fill-rule="evenodd" clip-rule="evenodd" d="M376.168 156.812C370.365 184.505 361.414 216.321 339.304 235.392C330.803 242.729 317.292 244.411 306.107 254.733C287.138 272.229 276.705 264.463 261.044 258.718C253.421 255.93 243.641 252.156 235.548 253.17C224.475 254.564 227.672 263.4 233.475 270.834C238.379 277.101 245.953 280.727 253.239 283.423C268.056 288.915 284.271 291.217 299.988 291.893C321.901 292.829 346.161 291.013 365.805 280.346C405.971 258.528 392.32 196.447 376.168 156.812Z" fill="#D26C00"/>
</g>
<path fill-rule="evenodd" clip-rule="evenodd" d="M318.008 126.697L335.533 126.952C333.103 133.554 334.187 136.919 336.687 143.112C314.399 186.251 308.656 171.625 316.208 143.508C319.162 139.296 320.141 133.916 318.008 126.697Z" fill="#FADBBA"/>
<mask id="mask6_50_161" style="mask-type:luminance" maskUnits="userSpaceOnUse" x="313" y="126" width="24" height="45">
<path d="M318.008 126.697L335.533 126.952C333.103 133.554 334.187 136.919 336.687 143.112C314.399 186.251 308.656 171.625 316.208 143.508C319.162 139.296 320.141 133.916 318.008 126.697Z" fill="white"/>
</mask>
<g mask="url(#mask6_50_161)">
<path fill-rule="evenodd" clip-rule="evenodd" d="M316.115 137.065C319.315 141.717 324.81 143.609 330.245 142.47C333.376 141.818 336.359 139.839 337.029 136.497C337.708 133.093 335.611 130.392 332.765 128.767C328.325 126.238 320.133 133.813 316.115 137.065Z" fill="#D7B999"/>
<path fill-rule="evenodd" clip-rule="evenodd" d="M316.853 115.758C315.785 123.958 314.607 132.276 315.157 140.554C315.443 144.856 309.787 164.847 318.733 167.107C326.523 169.07 327.894 171.576 322.715 176.204C317.628 180.743 310.773 180.565 306.618 174.911C304.169 171.586 302.904 167.373 302.16 163.357C300.527 154.516 314.995 124.481 316.853 115.758Z" fill="#D7B999"/>
</g>
<path fill-rule="evenodd" clip-rule="evenodd" d="M326.25 105.621C319.474 105.621 313.973 112.908 313.973 121.884C313.973 130.86 315.148 138.647 321.918 138.647C328.695 138.647 338.521 130.86 338.521 121.884C338.521 112.908 333.02 105.621 326.25 105.621Z" fill="#FADBBA"/>
<path fill-rule="evenodd" clip-rule="evenodd" d="M326.327 117.965C324.508 120.363 320.946 121.12 318.142 121.027C315.634 120.943 313.006 120.315 310.751 119.228C304.47 116.204 305.25 108.703 308.011 103.394C310.463 98.684 314.679 95.8663 319.716 98.7558C320.686 99.3141 321.43 100.103 322.14 100.962C324.17 100.122 326.65 100.241 328.779 100.472C330.683 100.677 332.707 101.002 334.491 101.717C342.508 104.93 344.306 113.89 342.156 121.394C341.236 124.594 339.494 127.868 336.929 130.048C335.777 131.024 334.21 131.983 332.622 131.674C328.526 130.878 332.566 126.955 333.009 124.978C333.227 124.013 333.206 122.403 332.06 122.031C331.386 121.81 330.725 122.108 330.206 122.537C328.8 123.699 328.105 125.537 326.58 126.601C325.217 127.552 324.803 126.408 325.175 125.206C325.302 124.796 325.449 124.395 325.604 123.994C325.906 123.192 326.229 118.819 326.327 117.965Z" fill="#03042F"/>
<path d="M169.738 183.716L160.407 172.062C160.407 172.062 185.967 165.288 190.681 162.346C197.412 158.15 206.096 155.507 216.74 154.417C227.391 153.328 235.091 151.747 239.847 149.677C244.611 147.606 248.44 144.561 251.335 140.541C260.075 128.409 258.852 118.302 247.681 110.219C242.377 106.384 236.96 104.947 231.417 105.908C225.873 106.868 220.969 110.168 216.683 115.807L185.524 93.2677L176.18 81.1902C176.18 81.1902 210.339 71.8587 221.988 70.6702C236.271 69.2128 250.941 73.9251 265.983 84.8063C281.173 95.791 290.306 107.994 293.384 121.414C296.468 134.835 293.173 148.257 283.505 161.68C279.107 167.782 273.599 172.559 266.974 176.009C260.349 179.46 251.25 182.027 239.693 183.709L225.016 185.704C215.798 187.007 208.26 190.89 202.4 197.356L197.243 203.613L169.738 183.716ZM142.808 214.52C146.272 209.71 150.761 206.922 156.269 206.158C161.777 205.392 167.075 206.849 172.161 210.528C177.248 214.207 180.29 218.786 181.302 224.268C182.314 229.746 181.084 234.892 177.62 239.701C174.206 244.439 169.801 247.199 164.384 247.981C158.974 248.762 153.656 247.263 148.428 243.475C143.194 239.694 140.103 235.111 139.133 229.718C138.171 224.324 139.393 219.257 142.808 214.52Z" fill="#3EB052"/>
<path d="M160.302 171.499C167.541 161.449 174.568 154.352 181.3 150.167C188.037 145.975 196.709 143.318 207.311 142.205C217.993 141.137 225.673 139.546 230.435 137.471C235.192 135.402 239.056 132.384 241.954 128.361C250.695 116.226 249.433 106.091 238.25 98.0011C232.991 94.1974 227.519 92.7234 221.982 93.6855C216.445 94.6476 211.571 97.9738 207.285 103.611L176.104 81.0574C186.126 67.456 198.3 59.9376 212.552 58.4496C226.873 57.0225 241.519 61.7131 256.554 72.5884C271.737 83.5708 280.862 95.7704 284.008 109.233C287.074 122.649 283.737 136.04 274.071 149.459C269.671 155.567 264.19 160.363 257.547 163.799C250.978 167.288 241.833 169.817 230.262 171.494L215.624 173.517C206.369 174.792 198.838 178.68 193.03 185.181L187.854 191.428L160.302 171.499ZM133.38 202.306C136.844 197.497 141.334 194.705 146.838 193.945C152.348 193.177 157.691 194.672 162.728 198.315C167.838 202.012 170.864 206.57 171.872 212.052C172.885 217.527 171.655 222.677 168.191 227.486C164.78 232.221 160.407 235.008 154.998 235.792C149.59 236.575 144.256 235.065 138.997 231.261C133.813 227.511 130.703 222.914 129.742 217.523C128.781 212.132 129.969 207.042 133.38 202.306Z" fill="#53D86A"/>
<path fill-rule="evenodd" clip-rule="evenodd" d="M364.252 158.013C330.515 161.53 287.032 210.933 287.032 210.933L208.478 186.151C208.478 186.151 202.541 172.195 200.482 172.058C193.723 171.61 196.464 183.182 196.464 183.182C196.464 183.182 175.646 181.204 172.014 182.47C160.393 186.524 186.438 199.346 186.438 199.346C186.438 199.346 247.028 254.043 277.133 258C307.238 261.956 350.784 232.456 367.055 223.101C396.978 205.899 383.854 155.969 364.252 158.013Z" fill="#FADBBA"/>
<mask id="mask7_50_161" style="mask-type:luminance" maskUnits="userSpaceOnUse" x="169" y="157" width="216" height="102">
<path d="M364.252 158.013C330.515 161.53 287.032 210.933 287.032 210.933L208.478 186.151C208.478 186.151 202.541 172.195 200.482 172.058C193.723 171.61 196.464 183.182 196.464 183.182C196.464 183.182 175.646 181.204 172.014 182.47C160.393 186.524 186.438 199.346 186.438 199.346C186.438 199.346 247.028 254.043 277.133 258C307.238 261.956 350.784 232.456 367.055 223.101C396.978 205.899 383.854 155.969 364.252 158.013Z" fill="white"/>
</mask>
<g mask="url(#mask7_50_161)">
<path fill-rule="evenodd" clip-rule="evenodd" d="M324.606 185.356C323.116 192.645 324.191 201.585 327.079 208.337C329.123 213.1 331.589 217.673 333.592 222.446C334.414 224.402 335.735 226.965 335.081 229.147C334.322 231.682 331.393 233.696 329.292 234.991C327.395 236.16 325.358 237.103 323.271 237.864C319.744 239.152 316.049 239.969 312.367 240.673C306.578 241.778 300.648 242.369 294.768 242.736C285.838 243.285 276.711 243.207 267.838 241.912C247.808 238.983 229.126 230.914 212.377 219.742C205.969 215.467 199.66 210.99 193.548 206.296C192.086 205.172 186.578 199.785 187.513 204.871C188.321 209.289 190.871 213.615 193.147 217.392C197.904 225.282 203.531 232.576 210.128 239.004C216.325 245.045 223.316 250.297 230.714 254.754C265.217 275.524 307.344 272.51 342.486 254.852C358.379 246.868 375.873 235.491 383.369 218.593C385.716 213.291 324.142 191.097 324.606 185.356Z" fill="#D7B999"/>
<path fill-rule="evenodd" clip-rule="evenodd" d="M318.515 174.165C318.536 185.312 324.964 196.07 330.676 205.213C334.871 211.933 339.107 218.386 345.451 223.231C351.009 227.472 358.098 231.703 365.116 232.837C379.533 235.153 390.016 221.465 395.383 209.906C405.051 189.092 403.828 156.067 378.311 147.637C374.355 146.33 370.105 145.698 365.938 145.752C358.147 145.854 325.505 170.939 318.515 174.165Z" fill="#F27F05"/>
</g>
<path fill-rule="evenodd" clip-rule="evenodd" d="M62.428 268.034H376.191V270.099H62.428V268.034Z" fill="#098206"/>
<path fill-rule="evenodd" clip-rule="evenodd" d="M18.3362 268.294H51.9541V270.488H18.3362V268.294Z" fill="#098206"/>
<path fill-rule="evenodd" clip-rule="evenodd" d="M14.5966 23.3045C14.5966 11.5398 30.7629 -0.487289 42.5023 -0.487289H121.514C133.253 -0.487289 142.785 9.06426 142.785 20.829V63.4611C142.785 75.2259 133.253 84.7774 121.514 84.7774V111.433C121.514 113.006 111.6 121.667 110.545 120.499C100.943 109.831 88.6129 84.7774 88.6129 84.7774H42.5023C30.7629 84.7774 21.2314 75.2259 21.2314 63.4611L14.5966 23.3045Z" fill="#3EB052"/>
<path fill-rule="evenodd" clip-rule="evenodd" d="M13.7471 26.5548C13.7471 14.79 23.2785 5.23848 35.0179 5.23848H114.029C125.769 5.23848 135.3 14.79 135.3 26.5548V69.1869C135.3 80.9516 125.769 90.5032 114.029 90.5032V117.159C114.029 117.927 113.797 118.677 113.363 119.311C112.928 119.944 112.313 120.431 111.597 120.706C110.881 120.982 110.098 121.034 109.352 120.855C108.606 120.676 107.931 120.275 107.416 119.705C97.8139 109.036 81.1285 90.5032 81.1285 90.5032H35.0179C23.2785 90.5032 13.7471 80.9516 13.7471 69.1869V26.5548Z" fill="#53D86A"/>
<path fill-rule="evenodd" clip-rule="evenodd" d="M33.421 26.1976C22.9108 37.581 23.5992 55.3428 34.9561 65.8728C39.8259 70.388 46.1383 73.0257 52.7666 73.3146L53.6811 52.2775C52.023 52.2059 50.4442 51.5466 49.2261 50.4171C46.3881 47.7858 46.2159 43.3441 48.844 40.4976L33.421 26.1976ZM58.026 73.0489C64.3663 72.1212 70.1981 69.0447 74.5501 64.3319C84.7282 53.308 84.4456 36.2092 73.9087 25.5276L63.9466 35.398C69.2138 40.7376 69.355 49.287 64.2671 54.7977C62.0903 57.1554 59.1751 58.6923 56.0064 59.1574L58.026 73.0489ZM69.0268 21.5794C59.1818 15.2997 46.4834 15.7939 37.1541 22.8197L43.1324 30.7929C49.1476 26.2642 57.3359 25.9456 63.6835 29.9931L69.0268 21.5794Z" fill="white"/>
<path fill-rule="evenodd" clip-rule="evenodd" d="M112.765 27.9765C112.763 27.1607 112.439 26.3787 111.863 25.8023C111.287 25.2258 110.506 24.902 109.692 24.9018H92.801C91.9898 24.9018 91.2063 25.2259 90.634 25.8028C90.3484 26.0878 90.1219 26.4265 89.9674 26.7996C89.8129 27.1726 89.7336 27.5726 89.7339 27.9765V28.0461C89.7339 28.8613 90.0562 29.6436 90.634 30.2199C90.9183 30.5055 91.2561 30.7321 91.6279 30.8867C91.9998 31.0413 92.3984 31.1208 92.801 31.1208H109.692C110.506 31.1206 111.287 30.7968 111.863 30.2203C112.439 29.6439 112.763 28.8619 112.765 28.0461V27.9765Z" fill="white"/>
<path fill-rule="evenodd" clip-rule="evenodd" d="M127.125 42.7343C127.125 42.0567 126.854 41.4065 126.376 40.9272C125.898 40.4478 125.248 40.1786 124.572 40.1786H92.283C91.6063 40.1786 90.9568 40.4478 90.4786 40.9272C90.0005 41.4065 89.7297 42.0567 89.7297 42.7343V42.7366C89.7297 43.4142 90.0005 44.0644 90.4786 44.5438C90.9568 45.0231 91.6063 45.2923 92.283 45.2923H124.572C125.248 45.2923 125.898 45.0231 126.376 44.5438C126.854 44.0644 127.125 43.4142 127.125 42.7366V42.7343Z" fill="white"/>
<path fill-rule="evenodd" clip-rule="evenodd" d="M127.125 51.332C127.125 50.6544 126.854 50.0042 126.376 49.5248C125.898 49.0455 125.248 48.7762 124.572 48.7762H92.283C91.6063 48.7762 90.9568 49.0455 90.4786 49.5248C90.0005 50.0042 89.7297 50.6544 89.7297 51.332V51.3343C89.7297 52.0119 90.0005 52.6621 90.4786 53.1414C90.9568 53.6208 91.6063 53.89 92.283 53.89H124.572C125.248 53.89 125.898 53.6208 126.376 53.1414C126.854 52.6621 127.125 52.0119 127.125 51.3343V51.332Z" fill="white"/>
<path fill-rule="evenodd" clip-rule="evenodd" d="M127.125 59.929C127.125 59.2514 126.854 58.6013 126.376 58.1219C125.898 57.6425 125.248 57.3733 124.572 57.3733H92.283C91.6063 57.3733 90.9568 57.6425 90.4786 58.1219C90.0005 58.6013 89.7297 59.2514 89.7297 59.929V59.9313C89.7297 60.609 90.0005 61.2591 90.4786 61.7385C90.9568 62.2179 91.6063 62.4871 92.283 62.4871H124.572C125.248 62.4871 125.898 62.2179 126.376 61.7385C126.854 61.2591 127.125 60.609 127.125 59.9313V59.929Z" fill="white"/>
<path opacity="0.05" d="M51.3242 264.072C51.3242 264.072 6.93237 268.987 0.547201 276.021C-5.83797 283.055 44.1649 284.599 123.953 280.637C203.741 276.674 265.174 280.637 308.674 287.891C352.175 295.145 411.179 293.742 411.995 275.977C412.812 258.212 304.286 258 304.286 258L51.3242 264.072Z" fill="#000005"/>
</g>
<defs>
<clipPath id="clip0_50_161">
<rect width="412" height="292" fill="white"/>
</clipPath>
</defs>
</svg>
