<svg width="323" height="208" viewBox="0 0 323 208" fill="none" xmlns="http://www.w3.org/2000/svg">
<g clip-path="url(#clip0_50_116)">
<path opacity="0.31" d="M311.697 189.701C311.065 189.709 307.179 184.52 306.434 183.801C300.347 177.918 296.694 171.454 293.95 164.422C291.858 159.061 290.297 153.366 288.594 147.358C287.444 143.305 285.59 138.776 281.574 137.497C277.666 136.256 273.457 138.83 271.056 142.148C268.65 145.465 267.441 149.489 265.387 153.032C261.659 159.454 255.061 162.145 249.606 156.5C241.816 148.436 238.305 137.439 233.364 127.603C229.779 120.462 226.775 112.102 222.257 105.517C215.366 95.4805 205.915 86.9192 193.351 86.9192C185.385 88.1225 178.369 95.1713 173.616 103.975C168.867 112.779 166.094 123.253 163.734 133.699C161.755 142.461 160.019 151.319 158.412 160.223C155.425 149.493 152.316 138.843 148.953 128.376C145.309 117.04 141.284 105.746 135.694 96.6754C130.105 87.6044 122.704 80.915 115.273 80.9609C103.822 83.1754 96.4339 94.4651 91.5891 106.975C88.4136 115.177 86.874 125.113 84.6231 133.779C81.5271 145.716 79.9038 158.702 73.9545 169.152C69.7917 176.464 63.3905 174.6 59.077 168.028C56.6965 164.401 55.0188 160.089 52.3537 156.78C49.6887 153.471 45.484 151.315 42.1035 153.4C38.6268 155.543 37.585 160.971 37.1164 165.73C36.4219 172.795 35.8153 179.472 34.6731 185.873C34.4263 187.269 34.1501 188.648 33.8447 190.014H153.4C153.316 190.524 153.233 191.038 153.153 191.547L311.697 189.701Z" fill="#9CFA0D"/>
<path opacity="0.77" d="M263.86 173.472C263.55 179.627 256.844 190.386 250.681 190.077C244.518 189.768 241.23 178.503 241.544 172.348C241.853 166.194 248.418 135.391 254.58 135.705C260.739 136.014 264.17 167.318 263.86 173.472Z" fill="#FE9526"/>
<path d="M251.175 189.747H251.166C251.145 189.745 251.124 189.74 251.105 189.731C251.086 189.721 251.069 189.708 251.055 189.692C251.041 189.676 251.03 189.658 251.024 189.638C251.017 189.618 251.014 189.596 251.016 189.575L254.124 139.695C254.129 139.607 254.2 139.532 254.296 139.545C254.384 139.549 254.455 139.628 254.446 139.716L251.338 189.596C251.334 189.637 251.315 189.675 251.285 189.702C251.255 189.73 251.216 189.746 251.175 189.747Z" fill="#595BD4"/>
<path opacity="0.77" d="M249.752 172.19C248.351 175.269 247.28 178.499 246.635 181.866C246.309 183.571 246.1 185.422 246.874 186.981C247.719 188.681 249.593 189.671 251.468 189.981C256.049 190.733 260.63 187.929 263.316 184.148C266.002 180.366 267.165 175.741 268.232 171.233C269.073 167.681 269.897 164.075 271.483 160.766C272.161 159.346 276.139 153.868 274.257 152.447C271.684 150.429 264.237 152.623 259.467 157.829C255.534 162.107 252.154 166.925 249.752 172.19Z" fill="#FE9526"/>
<path d="M251.468 190.139C251.455 190.139 251.443 190.139 251.426 190.135C251.384 190.125 251.349 190.098 251.327 190.061C251.305 190.024 251.298 189.98 251.309 189.939C251.363 189.722 257.007 168.249 270.24 156.024C270.307 155.965 270.408 155.965 270.47 156.032C270.533 156.099 270.529 156.199 270.462 156.262C257.296 168.421 251.681 189.805 251.627 190.018C251.61 190.093 251.543 190.139 251.468 190.139Z" fill="#595BD4"/>
<path opacity="0.77" d="M282.147 167.121C281.674 167.97 280.788 168.546 279.98 168.997C278.989 169.557 277.93 170.046 276.905 170.522C275.591 171.132 274.236 171.763 272.981 172.549C272.069 173.121 271.257 173.769 270.575 174.463C271.65 172.022 272.909 169.892 274.391 167.986C276.34 165.479 278.34 164.209 280.344 164.209C280.39 164.209 280.436 164.209 280.482 164.213C281.101 164.23 281.582 164.385 281.913 164.669C282.595 165.249 282.566 166.369 282.147 167.121ZM284.381 181.022C283.591 181.587 282.541 181.729 281.62 181.795C280.482 181.875 279.315 181.866 278.189 181.862C276.742 181.854 275.244 181.841 273.776 182.017C272.704 182.146 271.692 182.385 270.78 182.719C272.797 180.972 274.847 179.581 277.001 178.495C279.838 177.061 282.189 176.769 284.001 177.626L284.126 177.688C284.678 177.968 285.047 178.311 285.226 178.712C285.586 179.522 285.08 180.525 284.381 181.022Z" fill="#FE9526"/>
<path opacity="0.77" d="M279.11 187.866C278.453 187.774 277.863 187.357 277.374 186.956C276.771 186.463 276.194 185.915 275.637 185.38C274.922 184.699 274.181 183.993 273.37 183.391C272.776 182.953 272.161 182.598 271.55 182.339C273.374 182.414 275.043 182.681 276.629 183.149C278.712 183.763 280.018 184.72 280.516 185.99C280.528 186.02 280.537 186.049 280.549 186.078C280.691 186.475 280.712 186.818 280.616 187.102C280.415 187.683 279.691 187.946 279.11 187.866Z" fill="#FE9526"/>
<path d="M264.115 190.265C264.032 190.256 263.952 190.194 263.952 190.102C263.952 189.968 264.199 176.731 280.173 165.638C280.248 165.588 280.348 165.605 280.399 165.68C280.449 165.755 280.432 165.855 280.357 165.905C264.521 176.903 264.274 189.972 264.274 190.102C264.278 190.19 264.207 190.265 264.115 190.265Z" fill="#595BD4"/>
<path d="M264.115 190.265C264.09 190.265 264.069 190.261 264.044 190.248C264.025 190.239 264.007 190.226 263.992 190.211C263.978 190.195 263.966 190.176 263.959 190.156C263.951 190.136 263.948 190.114 263.949 190.093C263.95 190.071 263.955 190.05 263.965 190.031C264.015 189.926 269.102 179.368 282.444 179.368C282.536 179.368 282.608 179.439 282.608 179.531C282.608 179.623 282.536 179.694 282.444 179.694C269.316 179.694 264.308 190.064 264.262 190.169C264.237 190.227 264.178 190.265 264.115 190.265Z" fill="#595BD4"/>
<path d="M279.411 186.525C279.376 186.524 279.343 186.513 279.315 186.492C274.035 182.514 271.437 182.631 271.416 182.635C271.324 182.644 271.249 182.573 271.24 182.485C271.236 182.397 271.303 182.318 271.391 182.309C271.5 182.297 274.106 182.163 279.511 186.233C279.583 186.287 279.599 186.387 279.545 186.463C279.512 186.5 279.461 186.525 279.411 186.525Z" fill="#595BD4"/>
<path d="M75.0424 170.836C72.7204 168.158 69.7792 165.851 68.8504 162.471C68.1726 160.001 68.7082 157.39 68.9717 154.846C69.2353 152.301 69.1433 149.485 67.4949 147.529C66.1352 145.917 63.9889 145.215 61.9263 144.772C59.8637 144.329 57.709 144.049 55.8766 143C52.9019 141.295 53.496 138.4 51.8978 135.859C50.1071 133.01 45.9359 129.371 42.363 131.263C38.5809 133.269 39.1791 139.357 41.6936 142.043C43.3629 143.827 45.5008 145.536 45.7476 147.968C46.1158 151.624 41.9237 154.917 43.0742 158.41C43.9277 160.988 47.1785 161.873 48.7893 164.063C50.3791 166.231 50.0569 169.265 49.124 171.784C48.1868 174.304 46.7141 176.631 46.1326 179.251C44.9402 184.616 49.1574 188.322 53.9604 189.521C58.3743 190.62 67.8923 190.102 67.8923 190.102C71.2896 188.915 75.055 185.936 76.9251 182.677C78.335 180.216 78.5317 177.099 77.4397 174.479C76.8749 173.134 76.013 171.951 75.0424 170.836Z" fill="#FE9526"/>
<path d="M64.6165 190.127C64.5329 190.127 64.4576 190.06 64.4534 189.972C62.7088 162.492 46.6222 137.389 46.459 137.138C46.4469 137.12 46.4387 137.1 46.4346 137.079C46.4306 137.057 46.431 137.035 46.4357 137.014C46.4404 136.993 46.4493 136.973 46.462 136.956C46.4746 136.938 46.4907 136.923 46.5092 136.912C46.5845 136.862 46.6849 136.883 46.7351 136.962C46.8983 137.213 63.0309 162.391 64.7839 189.951C64.7881 190.039 64.7211 190.118 64.6333 190.123C64.6249 190.127 64.6207 190.127 64.6165 190.127Z" fill="#595BD4"/>
<path d="M32.1211 170.869C32.3722 170.656 32.7362 170.539 33.2047 170.527H33.3093C34.8197 170.527 36.3342 171.488 37.8111 173.38C38.9323 174.822 39.882 176.435 40.6937 178.277C40.1791 177.751 39.5641 177.262 38.8737 176.832C37.9282 176.238 36.899 175.762 35.9075 175.298C35.1335 174.939 34.3344 174.567 33.5855 174.145C32.9746 173.802 32.3052 173.364 31.9454 172.724C31.6275 172.156 31.6065 171.308 32.1211 170.869ZM29.6193 181.486C29.7531 181.185 30.0334 180.926 30.4518 180.713C30.4811 180.696 30.5146 180.684 30.5439 180.667C31.912 180.02 33.6901 180.241 35.8363 181.323C37.468 182.146 39.016 183.199 40.5431 184.52C39.8527 184.265 39.0871 184.085 38.2797 183.989C37.1668 183.855 36.0372 183.864 34.941 183.872C34.0875 183.876 33.2047 183.885 32.3471 183.822C31.6484 183.772 30.8576 183.663 30.2594 183.237C29.7238 182.861 29.3431 182.1 29.6193 181.486Z" fill="#FE9526"/>
<path d="M33.1002 187.837C33.0249 187.624 33.0416 187.365 33.1504 187.064C33.1587 187.043 33.1671 187.018 33.1755 186.997C33.552 186.036 34.5394 185.314 36.1167 184.85C37.3132 184.495 38.5767 184.294 39.9574 184.236C39.493 184.432 39.0286 184.699 38.5809 185.034C37.9659 185.489 37.4053 186.02 36.8656 186.538C36.443 186.939 36.0079 187.357 35.5519 187.729C35.1837 188.029 34.736 188.347 34.2382 188.418C33.7989 188.472 33.255 188.272 33.1002 187.837Z" fill="#FE9526"/>
<path d="M45.5761 190.265C45.5328 190.265 45.4913 190.248 45.4607 190.217C45.4301 190.186 45.4129 190.145 45.4129 190.102C45.4129 190.002 45.2163 180.132 33.2716 171.839C33.2361 171.814 33.2117 171.777 33.2039 171.734C33.196 171.692 33.2054 171.648 33.2298 171.613C33.2542 171.577 33.2917 171.553 33.3341 171.545C33.3764 171.537 33.4202 171.547 33.4557 171.571C45.551 179.969 45.7392 190.002 45.7392 190.102C45.7434 190.19 45.6681 190.265 45.5761 190.265C45.5803 190.265 45.5803 190.265 45.5761 190.265Z" fill="#595BD4"/>
<path d="M45.5804 190.265C45.5176 190.265 45.4591 190.231 45.4339 190.173C45.3963 190.093 41.6184 182.276 31.7196 182.276C31.6275 182.276 31.5564 182.205 31.5564 182.113C31.5564 182.021 31.6275 181.95 31.7196 181.95C41.8317 181.95 45.6892 189.956 45.7268 190.035C45.7645 190.118 45.731 190.215 45.6473 190.252C45.6264 190.256 45.6013 190.265 45.5804 190.265Z" fill="#595BD4"/>
<path d="M34.0122 187.436C33.9868 187.436 33.9616 187.431 33.939 187.419C33.9164 187.407 33.897 187.39 33.8826 187.369C33.8282 187.298 33.8407 187.194 33.916 187.139C38.0119 184.052 39.9992 184.16 40.0829 184.164C40.1708 184.173 40.2419 184.248 40.2335 184.34C40.2251 184.428 40.1498 184.503 40.0578 184.49C40.0369 184.49 38.0872 184.407 34.1127 187.398C34.0792 187.428 34.0457 187.436 34.0122 187.436Z" fill="#595BD4"/>
<path d="M207.003 183.371H92.2922C89.7652 183.371 87.7109 181.319 87.7109 178.795V24.6169C87.7109 22.0932 89.7652 20.0417 92.2922 20.0417H126.578V21.2951H92.2922C90.4597 21.2951 88.9661 22.7868 88.9661 24.6169V178.795C88.9661 180.626 90.4597 182.117 92.2922 182.117H207.003C208.835 182.117 210.329 180.626 210.329 178.795V24.6169C210.329 22.7868 208.835 21.2951 207.003 21.2951H172.725V20.0417H207.003C209.53 20.0417 211.584 22.0932 211.584 24.6169V178.795C211.584 181.315 209.53 183.371 207.003 183.371Z" fill="#FE9526"/>
<path d="M202.216 175.265H97.0783C96.1872 175.265 95.4634 174.542 95.4634 173.652V29.7603C95.4634 28.8703 96.1872 28.1475 97.0783 28.1475H202.216C203.108 28.1475 203.831 28.8703 203.831 29.7603V173.652C203.831 174.542 203.108 175.265 202.216 175.265Z" fill="#F2F2F2"/>
<path d="M173.269 32.4177H126.026V16.979H139.703C139.795 11.5806 144.221 7.21432 149.647 7.21432C155.074 7.21432 159.5 11.5806 159.592 16.979H173.269V32.4177ZM127.281 31.1642H172.014V18.2325H158.283L158.325 17.4052C158.329 17.3216 158.337 17.2338 158.337 17.1461C158.337 12.362 154.438 8.46781 149.647 8.46781C144.857 8.46781 140.958 12.362 140.958 17.1461C140.958 17.2338 140.966 17.3216 140.97 17.4052L141.012 18.2325H127.281V31.1642Z" fill="#FE9526"/>
<path d="M149.647 22.9999C146.417 22.9999 143.786 20.3759 143.786 17.1461C143.786 13.9163 146.413 11.2923 149.647 11.2923C152.881 11.2923 155.509 13.9163 155.509 17.1461C155.509 20.3759 152.877 22.9999 149.647 22.9999ZM149.647 12.55C147.108 12.55 145.041 14.6141 145.041 17.1503C145.041 19.6865 147.108 21.7506 149.647 21.7506C152.187 21.7506 154.254 19.6865 154.254 17.1503C154.254 14.6141 152.187 12.55 149.647 12.55Z" fill="#FE9526"/>
<path d="M314.626 207.563H8.37405C3.52088 207.563 -0.411865 203.635 -0.411865 198.788C-0.411865 193.942 3.52088 190.014 8.37405 190.014H314.626C319.479 190.014 323.412 193.942 323.412 198.788C323.412 203.635 319.479 207.563 314.626 207.563Z" fill="#9CFA0D"/>
<path d="M127.226 68.9902H109.123V50.9108H127.226V68.9902ZM109.542 68.5724H126.808V51.3286H109.542V68.5724Z" fill="#595BD4"/>
<path d="M118.771 65.0041L112.788 60.3119L113.822 58.9999L118.658 62.7896L129.13 52.7158L130.289 53.9191L118.771 65.0041ZM193.129 56.1336H135.506C135.325 56.1336 135.152 56.0619 135.024 55.9341C134.896 55.8064 134.824 55.6332 134.824 55.4526C134.824 55.2719 134.896 55.0987 135.024 54.971C135.152 54.8433 135.325 54.7715 135.506 54.7715H193.129C193.31 54.7715 193.483 54.8433 193.611 54.971C193.739 55.0987 193.811 55.2719 193.811 55.4526C193.811 55.6332 193.739 55.8064 193.611 55.9341C193.483 56.0619 193.31 56.1336 193.129 56.1336ZM193.129 59.1336H135.506C135.325 59.1336 135.152 59.0619 135.024 58.9341C134.896 58.8064 134.824 58.6332 134.824 58.4526C134.824 58.2719 134.896 58.0987 135.024 57.971C135.152 57.8433 135.325 57.7715 135.506 57.7715H193.129C193.31 57.7715 193.483 57.8433 193.611 57.971C193.739 58.0987 193.811 58.2719 193.811 58.4526C193.811 58.6332 193.739 58.8064 193.611 58.9341C193.483 59.0619 193.31 59.1336 193.129 59.1336ZM193.129 62.1295H135.506C135.325 62.1295 135.152 62.0577 135.024 61.93C134.896 61.8023 134.824 61.629 134.824 61.4484C134.824 61.2678 134.896 61.0945 135.024 60.9668C135.152 60.8391 135.325 60.7673 135.506 60.7673H193.129C193.31 60.7673 193.483 60.8391 193.611 60.9668C193.739 61.0945 193.811 61.2678 193.811 61.4484C193.811 61.629 193.739 61.8023 193.611 61.93C193.483 62.0577 193.31 62.1295 193.129 62.1295ZM193.129 65.1295H135.506C135.325 65.1295 135.152 65.0577 135.024 64.93C134.896 64.8023 134.824 64.629 134.824 64.4484C134.824 64.2678 134.896 64.0945 135.024 63.9668C135.152 63.8391 135.325 63.7673 135.506 63.7673H193.129C193.31 63.7673 193.483 63.8391 193.611 63.9668C193.739 64.0945 193.811 64.2678 193.811 64.4484C193.811 64.629 193.739 64.8023 193.611 64.93C193.483 65.0577 193.31 65.1295 193.129 65.1295ZM127.226 97.4234H109.123V79.344H127.226V97.4234ZM109.542 97.0056H126.808V79.7618H109.542V97.0056Z" fill="#595BD4"/>
<path d="M118.771 93.4373L112.788 88.7451L113.822 87.4331L118.658 91.2228L129.13 81.149L130.289 82.3523L118.771 93.4373ZM193.129 84.5668H135.506C135.325 84.5668 135.152 84.4951 135.024 84.3673C134.896 84.2396 134.824 84.0664 134.824 83.8858C134.824 83.7051 134.896 83.5319 135.024 83.4042C135.152 83.2765 135.325 83.2047 135.506 83.2047H193.129C193.31 83.2047 193.483 83.2765 193.611 83.4042C193.739 83.5319 193.811 83.7051 193.811 83.8858C193.811 84.0664 193.739 84.2396 193.611 84.3673C193.483 84.4951 193.31 84.5668 193.129 84.5668ZM193.129 87.5668H135.506C135.325 87.5668 135.152 87.4951 135.024 87.3674C134.896 87.2396 134.824 87.0664 134.824 86.8858C134.824 86.7051 134.896 86.5319 135.024 86.4042C135.152 86.2765 135.325 86.2047 135.506 86.2047H193.129C193.31 86.2047 193.483 86.2765 193.611 86.4042C193.739 86.5319 193.811 86.7051 193.811 86.8858C193.811 87.0664 193.739 87.2396 193.611 87.3674C193.483 87.4951 193.31 87.5668 193.129 87.5668ZM193.129 90.5627H135.506C135.325 90.5627 135.152 90.4909 135.024 90.3632C134.896 90.2354 134.824 90.0622 134.824 89.8816C134.824 89.701 134.896 89.5277 135.024 89.4C135.152 89.2723 135.325 89.2005 135.506 89.2005H193.129C193.31 89.2005 193.483 89.2723 193.611 89.4C193.739 89.5277 193.811 89.701 193.811 89.8816C193.811 90.0622 193.739 90.2354 193.611 90.3632C193.483 90.4909 193.31 90.5627 193.129 90.5627ZM193.129 93.5627H135.506C135.325 93.5627 135.152 93.4909 135.024 93.3632C134.896 93.2355 134.824 93.0622 134.824 92.8816C134.824 92.701 134.896 92.5277 135.024 92.4C135.152 92.2723 135.325 92.2005 135.506 92.2005H193.129C193.31 92.2005 193.483 92.2723 193.611 92.4C193.739 92.5277 193.811 92.701 193.811 92.8816C193.811 93.0622 193.739 93.2355 193.611 93.3632C193.483 93.4909 193.31 93.5627 193.129 93.5627ZM127.226 125.857H109.123V107.777H127.226V125.857ZM109.542 125.439H126.808V108.195H109.542V125.439Z" fill="#595BD4"/>
<path d="M118.771 121.87L112.788 117.178L113.822 115.866L118.658 119.656L129.13 109.582L130.289 110.785L118.771 121.87ZM193.129 113H135.506C135.325 113 135.152 112.928 135.024 112.801C134.896 112.673 134.824 112.5 134.824 112.319C134.824 112.138 134.896 111.965 135.024 111.837C135.152 111.71 135.325 111.638 135.506 111.638H193.129C193.31 111.638 193.483 111.71 193.611 111.837C193.739 111.965 193.811 112.138 193.811 112.319C193.811 112.5 193.739 112.673 193.611 112.801C193.483 112.928 193.31 113 193.129 113ZM193.129 116H135.506C135.325 116 135.152 115.928 135.024 115.801C134.896 115.673 134.824 115.5 134.824 115.319C134.824 115.138 134.896 114.965 135.024 114.837C135.152 114.71 135.325 114.638 135.506 114.638H193.129C193.31 114.638 193.483 114.71 193.611 114.837C193.739 114.965 193.811 115.138 193.811 115.319C193.811 115.5 193.739 115.673 193.611 115.801C193.483 115.928 193.31 116 193.129 116ZM193.129 118.996H135.506C135.325 118.996 135.152 118.924 135.024 118.796C134.896 118.669 134.824 118.495 134.824 118.315C134.824 118.134 134.896 117.961 135.024 117.833C135.152 117.705 135.325 117.634 135.506 117.634H193.129C193.31 117.634 193.483 117.705 193.611 117.833C193.739 117.961 193.811 118.134 193.811 118.315C193.811 118.495 193.739 118.669 193.611 118.796C193.483 118.924 193.31 118.996 193.129 118.996ZM193.129 121.996H135.506C135.325 121.996 135.152 121.924 135.024 121.796C134.896 121.669 134.824 121.495 134.824 121.315C134.824 121.134 134.896 120.961 135.024 120.833C135.152 120.705 135.325 120.634 135.506 120.634H193.129C193.31 120.634 193.483 120.705 193.611 120.833C193.739 120.961 193.811 121.134 193.811 121.315C193.811 121.495 193.739 121.669 193.611 121.796C193.483 121.924 193.31 121.996 193.129 121.996ZM127.226 154.29H109.123V136.21H127.226V154.29ZM109.542 153.872H126.808V136.628H109.542V153.872Z" fill="#595BD4"/>
<path d="M118.771 150.304L112.788 145.612L113.822 144.3L118.658 148.089L129.13 138.015L130.289 139.219L118.771 150.304ZM193.129 141.433H135.506C135.325 141.433 135.152 141.361 135.024 141.234C134.896 141.106 134.824 140.933 134.824 140.752C134.824 140.572 134.896 140.398 135.024 140.271C135.152 140.143 135.325 140.071 135.506 140.071H193.129C193.31 140.071 193.484 140.143 193.611 140.271C193.739 140.398 193.811 140.572 193.811 140.752C193.811 140.933 193.739 141.106 193.611 141.234C193.484 141.361 193.31 141.433 193.129 141.433ZM193.129 144.433H135.506C135.325 144.433 135.152 144.361 135.024 144.234C134.896 144.106 134.824 143.933 134.824 143.752C134.824 143.572 134.896 143.398 135.024 143.271C135.152 143.143 135.325 143.071 135.506 143.071H193.129C193.31 143.071 193.484 143.143 193.611 143.271C193.739 143.398 193.811 143.572 193.811 143.752C193.811 143.933 193.739 144.106 193.611 144.234C193.484 144.361 193.31 144.433 193.129 144.433ZM193.129 147.429H135.506C135.325 147.429 135.152 147.357 135.024 147.23C134.896 147.102 134.824 146.929 134.824 146.748C134.824 146.567 134.896 146.394 135.024 146.266C135.152 146.139 135.325 146.067 135.506 146.067H193.129C193.31 146.067 193.484 146.139 193.611 146.266C193.739 146.394 193.811 146.567 193.811 146.748C193.811 146.929 193.739 147.102 193.611 147.23C193.484 147.357 193.31 147.429 193.129 147.429ZM193.129 150.429H135.506C135.325 150.429 135.152 150.357 135.024 150.23C134.896 150.102 134.824 149.929 134.824 149.748C134.824 149.567 134.896 149.394 135.024 149.266C135.152 149.139 135.325 149.067 135.506 149.067H193.129C193.31 149.067 193.484 149.139 193.611 149.266C193.739 149.394 193.811 149.567 193.811 149.748C193.811 149.929 193.739 150.102 193.611 150.23C193.484 150.357 193.31 150.429 193.129 150.429Z" fill="#595BD4"/>
<path d="M196.045 121.265C196.983 120.6 197.844 119.832 198.242 119.606C198.409 119.514 198.928 119.397 199.074 119.351C199.51 119.221 200.204 119.088 200.505 118.749L201.794 117.337C202.405 116.643 203.204 116.414 203.894 117.024C204.643 117.684 204.421 118.624 203.677 119.293L202.794 120.295C202.2 120.83 201.903 121.582 201.572 122.309C200.903 123.793 199.384 124.908 198.087 125.689C197.271 126.178 196.037 125.832 194.418 125.28C193.623 125.008 192.473 124.352 193.464 123.981C194.297 123.671 196.799 124.344 197.903 122.042C197.957 121.929 198.075 121.628 197.962 121.524C197.627 121.21 196.886 121.921 196.393 122.146C195.698 122.464 195.142 122.355 194.97 122.1C194.786 121.833 195.376 121.741 196.045 121.265Z" fill="#FAD6AF"/>
<path d="M231.256 70.7534C231.256 70.7534 229.189 95.5306 221.771 103.891C217.303 108.93 206.371 117.571 203.84 119.552C203.518 119.802 203.066 119.815 202.731 119.581C202.518 119.43 202.275 119.247 202.066 119.063C201.852 118.875 201.606 118.603 201.384 118.344C201.016 117.914 201.032 117.274 201.417 116.861C204.254 113.781 215.383 101.577 216.738 98.3677C218.291 94.6866 220.964 72.9554 223.42 69.8091C225.876 66.6545 230.582 65.9735 231.256 70.7534Z" fill="#FE9526"/>
<path d="M221.888 111.684L228.214 67.3105L245.271 64.9707L254.145 111.366L221.888 111.684ZM235.076 180.446L235.059 185.447C235.055 186.467 235.193 187.478 235.469 188.456L235.904 189.997C236.26 191.263 235.31 192.517 233.992 192.513C230.582 192.5 224.75 192.508 223.248 192.513C223.001 192.513 222.763 192.346 222.742 192.103C222.616 190.645 226.838 189.663 230.022 188.435C232.444 187.499 232.314 183.149 232.017 180.609C231.904 179.648 232.708 178.833 233.67 178.912C234.465 178.979 235.08 179.648 235.076 180.446ZM258.522 179.042L260.245 184.762C260.321 185.017 260.433 185.255 260.584 185.472L261.806 187.286C262.584 188.439 262.023 190.01 260.693 190.415C260.693 190.415 258.224 191.28 255.685 192.116C253.083 192.968 249.807 192.258 249.807 191.568C249.807 190.043 251.229 191.255 253.614 189.663C254.413 189.128 255.237 188.573 255.974 187.996C258.024 186.387 256.233 182.318 254.978 180.024C254.526 179.201 255.007 178.177 255.928 177.981L256.522 177.855C257.392 177.676 258.262 178.19 258.522 179.042Z" fill="#FAD6AF"/>
<path d="M240.895 112.114L221.989 110.531C221.989 110.531 220.085 124.273 224.863 149.146C227.106 160.812 231.775 183.103 231.775 183.103C232.934 183.609 234.109 183.734 235.306 183.437C235.306 183.437 235.661 173.606 235.879 163.014C236.088 152.861 236.143 142.01 236.791 138.458C238.113 131.205 240.895 112.114 240.895 112.114Z" fill="#595BD4"/>
<path d="M236.992 112.352C235.038 122.815 230.679 138.458 239.08 153.153C247.476 167.848 256.3 183.128 256.3 183.128C257.438 183.174 258.467 182.765 259.425 182.038C259.425 182.038 257.953 175.378 255.823 167.598C253.388 158.698 250.305 148.231 251.183 142.774C252.832 132.546 254.723 118.925 254.149 112.306C253.572 105.688 238.017 106.854 236.992 112.352Z" fill="#595BD4"/>
<path d="M221.236 110.556L228.214 67.3105L245.276 64.9707L254.443 110.635C254.484 110.839 254.484 111.049 254.444 111.252C254.403 111.456 254.323 111.65 254.207 111.823C254.091 111.995 253.942 112.143 253.768 112.258C253.595 112.372 253.4 112.451 253.196 112.49C250.02 113.092 242.36 114.345 233.783 114.345C227.382 114.345 223.784 113.104 222.148 112.315C221.826 112.159 221.563 111.904 221.399 111.587C221.235 111.27 221.177 110.908 221.236 110.556Z" fill="#F2F2F2"/>
<path d="M255.003 127.294C255.262 126.178 255.405 125.029 255.551 124.599C255.614 124.419 255.928 123.989 256.007 123.855C256.25 123.471 256.681 122.911 256.681 122.46L256.714 120.55C256.714 119.627 257.162 118.929 258.082 118.929C259.082 118.929 259.538 119.781 259.421 120.776V122.113C259.329 122.907 259.605 123.667 259.839 124.432C260.316 125.986 259.919 127.825 259.463 129.27C259.178 130.177 258.019 130.733 256.442 131.384C255.668 131.706 254.367 131.974 254.865 131.042C255.283 130.26 257.605 129.116 256.911 126.655C256.877 126.533 256.768 126.228 256.614 126.224C256.153 126.212 256.07 127.231 255.848 127.728C255.538 128.426 255.049 128.71 254.748 128.635C254.434 128.552 254.815 128.092 255.003 127.294Z" fill="#FAD6AF"/>
<path d="M239.946 67.6657C239.946 70.7827 240.515 73.8663 241.577 76.7952C243.661 82.5237 246.79 93.3538 244.929 102.897C242.255 116.639 238.812 122.192 243.272 125.397C247.732 128.598 256.283 123.258 256.53 121.474C256.777 119.694 254.865 97.812 252.702 88.3315C250.535 78.851 244.468 65.2214 244.468 65.2214L241.9 65.4972C241.363 65.5534 240.866 65.8061 240.506 66.2066C240.145 66.6071 239.945 67.1269 239.946 67.6657Z" fill="#FE9526"/>
<path d="M247.962 66.149C247.962 66.149 262.823 86.1003 262.793 97.2688C262.777 104 260.3 117.701 259.714 120.859C259.639 121.26 259.312 121.57 258.902 121.611C258.643 121.641 258.338 121.662 258.061 121.662C257.781 121.662 257.413 121.62 257.074 121.574C256.803 121.534 256.555 121.397 256.379 121.187C256.202 120.978 256.109 120.711 256.116 120.437C256.204 116.255 256.472 99.7507 255.359 96.4457C254.083 92.656 241.699 74.5975 241.456 70.6114C241.209 66.6295 244.293 63.0069 247.962 66.149ZM232.842 66.6754C232.842 66.6754 229.884 73.0599 230.913 82.2354C231.946 91.4109 234.335 119.351 225.976 123.571C223.328 124.908 217.282 118.992 217.282 116.794C217.282 114.596 219.299 107.251 221.211 100.57C223.123 93.8886 227.729 67.3732 227.729 67.3732L232.842 66.6754Z" fill="#FE9526"/>
<path d="M235.222 46.8829C239.03 46.8829 240.452 49.5905 240.523 54.596C240.552 56.4721 239.707 58.3272 239.025 59.5139C238.519 60.3955 238.381 61.4401 238.67 62.4136L239.506 65.2381C240.075 67.8579 238.829 69.2994 236.988 69.8217C236.076 70.0808 234.984 69.8802 234.189 69.3663C233.243 68.7562 233.164 67.4401 233.34 66.3287L233.557 65.5222C233.85 64.4359 233.218 63.266 232.118 63.0278C229.185 62.3885 228.767 59.3342 227.98 54.596C227.16 49.6573 231.415 46.8829 235.222 46.8829Z" fill="#FAD6AF"/>
<path d="M226.357 44.6852L228.541 45.3495C229.344 45.5918 230.197 45.6002 231.005 45.3662L235.364 44.1044C238.004 44.1044 242.368 45.5918 241.816 49.3983L241.33 52.0891C241.138 53.1629 240.238 53.9693 239.147 54.0612C239.046 54.4331 238.707 54.6921 238.322 54.6921C237.85 54.6921 237.469 54.3119 237.469 53.8398C237.469 52.6239 236.615 51.5918 235.431 51.3244C233.975 50.9985 232.423 50.9192 230.796 51.3579C227.767 52.1726 224.57 50.2966 224.269 47.1754C224.248 46.979 224.24 46.7785 224.24 46.5737C224.236 45.3119 225.277 44.3885 226.357 44.6852Z" fill="#595BD4"/>
<path d="M238.427 54.6879C238.427 55.8495 238.858 56.7896 239.979 56.7896C241.1 56.7896 241.816 55.1935 241.816 54.0319C241.816 52.8704 241.096 52.5862 239.979 52.5862C238.858 52.5862 238.427 53.5305 238.427 54.6879Z" fill="#FAD6AF"/>
<path d="M238.887 59.7855C238.887 59.7855 236.042 63.688 232.507 63.1615C232.507 63.1615 233.243 63.5125 233.419 64.0807C233.419 64.0807 236.778 63.8342 238.887 59.7855Z" fill="#E8BB8B"/>
<path d="M246.431 5.3675C246.431 8.0792 244.64 10.2812 242.427 10.2812H194.953C192.744 10.2812 190.95 8.08338 190.95 5.3675C190.95 2.6558 192.74 0.453838 194.953 0.453838H242.427C244.64 0.458016 246.431 2.6558 246.431 5.3675ZM76.4984 31.6739C76.4984 34.3856 74.2978 36.5876 71.5783 36.5876H13.2482C10.533 36.5876 8.32812 34.3898 8.32812 31.6739C8.32812 28.9622 10.5288 26.7603 13.2482 26.7603H71.5825C74.2978 26.7603 76.4984 28.9581 76.4984 31.6739ZM100.346 5.35078C100.346 8.06249 98.5218 10.2644 96.2751 10.2644H48.007C45.7603 10.2644 43.9362 8.06666 43.9362 5.35078C43.9362 2.63908 45.7603 0.437134 48.007 0.437134H96.2751C98.5218 0.437134 100.346 2.6349 100.346 5.35078ZM298.401 26.6433C298.401 29.355 296.201 31.557 293.481 31.557H235.151C232.436 31.557 230.231 29.3592 230.231 26.6433C230.231 23.9316 232.432 21.7296 235.151 21.7296H293.485C296.201 21.7338 298.401 23.9316 298.401 26.6433Z" fill="#9CFA0D"/>
<path d="M235.582 188.848C235.582 188.848 232.938 190.014 230.474 188.201C230.474 188.201 224.391 189.174 222.646 190.971C220.901 192.768 222.165 193.658 224.357 193.62C226.545 193.582 235.005 193.495 235.005 193.495C235.005 193.495 237.176 192.17 235.582 188.848ZM261.003 185.898C261.003 185.898 259.714 187.591 256.827 186.588C256.827 186.588 250.409 189.517 249.276 191.748C248.142 193.979 249.61 194.456 251.694 193.775C253.777 193.093 261.827 190.511 261.827 190.511C261.827 190.511 263.509 188.598 261.003 185.898Z" fill="#595BD4"/>
</g>
<defs>
<clipPath id="clip0_50_116">
<rect width="323" height="208" fill="white"/>
</clipPath>
</defs>
</svg>
